<?xml version="1.0" standalone="no"?>
<!DOCTYPE svg PUBLIC "-//W3C//DTD SVG 1.1//EN" "http://www.w3.org/Graphics/SVG/1.1/DTD/svg11.dtd" >
<svg xmlns="http://www.w3.org/2000/svg">
<metadata>Generated by IcoMoon</metadata>
<defs>
<font id="icomoon" horiz-adv-x="1024">
<font-face units-per-em="1024" ascent="960" descent="-64" />
<missing-glyph horiz-adv-x="1024" />
<glyph unicode="&#x20;" horiz-adv-x="512" d="" />
<glyph unicode="&#xe900;" glyph-name="chevron-thin-right" d="M678.4 460.8l-365.619 379.904c-13.722 13.824-13.722 36.198 0 50.125 13.722 13.824 35.891 13.824 49.613 0l400.896-404.89c13.722-13.875 13.722-36.301 0-50.125l-400.896-404.89c-13.722-13.875-35.891-13.824-49.613 0-13.722 13.773-13.722 36.198 0 50.125l365.619 379.75z" />
<glyph unicode="&#xe901;" glyph-name="chevron-thin-left" d="M711.219 80.998c13.722-13.926 13.722-36.301 0-50.125s-35.891-13.875-49.613 0l-400.896 404.89c-13.722 13.824-13.722 36.198 0 50.125l400.896 404.89c13.722 13.824 35.891 13.824 49.613 0 13.722-13.875 13.722-36.301 0-50.125l-365.619-379.853 365.619-379.802z" />
<glyph unicode="&#xe902;" glyph-name="chevron-thin-up" d="M132.198 261.581c-13.926-13.722-36.301-13.722-50.125 0s-13.875 35.891 0 49.613l404.89 400.896c13.824 13.722 36.198 13.722 50.125 0l404.89-400.896c13.824-13.722 13.824-35.891 0-49.613-13.875-13.722-36.301-13.722-50.074 0l-379.904 365.619-379.802-365.619z" />
<glyph unicode="&#xe903;" glyph-name="chevron-thin-down" d="M891.802 660.019c13.926 13.722 36.301 13.722 50.125 0s13.875-35.891 0-49.613l-404.89-400.896c-13.824-13.722-36.198-13.722-50.125 0l-404.89 400.896c-13.824 13.722-13.824 35.891 0 49.613 13.875 13.722 36.301 13.722 50.125 0l379.853-365.619 379.802 365.619z" />
<glyph unicode="&#xe904;" glyph-name="align-justify" d="M128 746.656h768q17.664 0 30.176-12.512t12.512-30.176-12.512-30.176-30.176-12.512h-768q-17.664 0-30.176 12.512t-12.512 30.176 12.512 30.176 30.176 12.512zM128 234.656h768q17.664 0 30.176-12.512t12.512-30.176-12.512-30.176-30.176-12.512h-768q-17.664 0-30.176 12.512t-12.512 30.176 12.512 30.176 30.176 12.512zM128 405.344h768q17.664 0 30.176-12.512t12.512-30.176-12.512-30.176-30.176-12.512h-768q-17.664 0-30.176 12.512t-12.512 30.176 12.512 30.176 30.176 12.512zM128 576h768q17.664 0 30.176-12.512t12.512-30.176-12.512-30.176-30.176-12.512h-768q-17.664 0-30.176 12.512t-12.512 30.176 12.512 30.176 30.176 12.512z" />
<glyph unicode="&#xe905;" glyph-name="arrow-down" d="M512 874.656q17.664 0 30.176-12.512t12.512-30.176v-664.992l225.664 226.016q12.32 12.32 30.336 12.32 18.336 0 30.496-12.16t12.16-30.496q0-18.016-12.32-30.336l-298.656-298.656q-12.32-12.32-30.336-12.32t-30.336 12.32l-298.656 298.656q-12.32 12.32-12.32 30.336 0 18.336 12.16 30.496t30.496 12.16q18.016 0 30.336-12.32l225.664-226.016v664.992q0 17.664 12.512 30.176t30.176 12.512z" />
<glyph unicode="&#xe906;" glyph-name="arrow-left" d="M426.656 789.344q17.664 0 30.176-12.512t12.512-30.176q0-18.016-12.672-30.336l-225.664-225.664h664.992q17.664 0 30.176-12.512t12.512-30.176-12.512-30.176-30.176-12.512h-664.992l225.664-225.664q12.672-12.32 12.672-30.336 0-17.664-12.512-30.176t-30.176-12.512q-18.016 0-30.336 12.32l-298.656 298.656q-12.32 13.024-12.32 30.336t12.32 30.336l298.656 298.656q12.672 12.32 30.336 12.32z" />
<glyph unicode="&#xe907;" glyph-name="arrow-right" d="M597.344 789.344q18.016 0 30.336-12.32l298.656-298.656q12.32-12.32 12.32-30.336t-12.32-30.336l-298.656-298.656q-12.32-12.32-30.336-12.32-18.336 0-30.496 12.16t-12.16 30.496q0 18.016 12.32 30.336l226.016 225.664h-664.992q-17.664 0-30.176 12.512t-12.512 30.176 12.512 30.176 30.176 12.512h664.992l-226.016 225.664q-12.32 12.32-12.32 30.336 0 18.336 12.16 30.496t30.496 12.16z" />
<glyph unicode="&#xe908;" glyph-name="arrow-up" d="M512 874.656q18.016 0 30.336-12.32l298.656-298.656q12.32-12.32 12.32-30.336 0-18.336-12.16-30.496t-30.496-12.16q-18.016 0-30.336 12.32l-225.664 226.016v-664.992q0-17.664-12.512-30.176t-30.176-12.512-30.176 12.512-12.512 30.176v664.992l-225.664-226.016q-12.32-12.32-30.336-12.32-18.336 0-30.496 12.16t-12.16 30.496q0 18.016 12.32 30.336l298.656 298.656q12.32 12.32 30.336 12.32z" />
<glyph unicode="&#xe909;" glyph-name="asterisk" d="M570.272 293.792c0-8.128 0-12.992 0-17.888 0-74.048 0.032-148.064 0-222.112 0-41.6-27.456-70.656-66.464-70.496s-65.856 29.12-65.856 71.072c0 73.12 0 146.208 0 219.328 0 5.536 0 11.040 0 20.32-5.92-5.472-9.536-8.576-12.864-11.936-53.696-53.632-107.136-107.52-161.12-160.864-32.64-32.224-85.952-23.104-106.176 17.472-12.672 25.408-7.648 55.904 13.536 77.184 52.192 52.512 104.608 104.8 157.12 156.992 4.192 4.16 9.856 6.784 14.848 10.144-1.152 1.92-2.304 3.84-3.424 5.792-4.8 0-9.568 0-14.368 0-74.496 0-148.992-0.032-223.52 0.032-40.576 0.032-69.472 27.552-69.504 65.984-0.032 38.56 28.768 66.272 69.184 66.304 74.496 0.096 148.992 0.032 223.52 0.032 4.864 0 9.76 0 17.952 0-5.92 6.368-9.184 10.080-12.64 13.568-52.32 52.384-104.704 104.704-156.992 157.12-29.184 29.28-30.176 69.44-2.624 96.96 27.296 27.232 67.52 25.792 96.96-3.616 52.384-52.32 104.704-104.672 157.088-157.024 3.232-3.232 6.624-6.304 13.12-12.48 0 8.544 0 13.728 0 18.912 0 74.048-0.032 148.064-0.032 222.112 0 40.8 27.232 69.792 65.568 69.952 39.2 0.16 66.72-28.704 66.752-70.144 0.032-74.048 0-148.064 0.032-222.112 0-4.96 0-9.888 0-18.016 5.76 5.152 9.184 7.904 12.288 11.008 53.376 53.312 106.528 106.816 160.096 159.936 36.896 36.544 96.96 22.72 111.36-25.856 7.744-26.112 1.408-49.344-18.432-68.992-52.896-52.448-105.408-105.312-158.176-157.888-3.264-3.264-7.328-5.76-11.008-8.608 0.544-1.344 1.088-2.72 1.664-4.064 4.672-0.256 9.312-0.736 13.984-0.736 74.496-0.032 148.992 0 223.52-0.032 41.6-0.032 70.176-27.232 70.208-66.72 0.032-38.080-29.248-65.632-69.888-65.632-74.048-0.032-148.064 0-222.112 0-4.992 0-9.984 0-18.016 0 4.544-5.28 6.912-8.384 9.632-11.136 54.272-54.4 108.928-108.384 162.752-163.2 35.552-36.192 19.744-96.032-28.736-109.76-25.76-7.296-48.544-0.672-67.712 18.624-52.864 53.152-105.952 106.080-158.976 159.072-3.2 3.2-6.592 6.016-12.544 11.392z" />
<glyph unicode="&#xe90a;" glyph-name="camera" d="M341.344 874.656h341.344l85.344-128h128q52.992 0 90.496-38.176t37.504-91.168v-468.64q0-52.992-37.504-90.144t-90.496-37.152h-768q-52.992 0-90.496 37.504t-37.504 90.496v468.64q0 52.992 37.504 90.848t90.496 37.856h128zM512 618.656q43.36 0 82.816-16.992t68-45.472 45.472-68 16.992-82.816-16.992-82.816-45.472-68-68-45.472-82.816-16.992-82.816 16.992-68 45.472-45.472 68-16.992 82.816 16.992 82.816 45.472 68 68 45.472 82.816 16.992zM512 533.344q-52.992 0-90.496-37.504t-37.504-90.496 37.504-90.496 90.496-37.504 90.496 37.504 37.504 90.496-37.504 90.496-90.496 37.504zM722.336 661.344l-83.68 128h-251.648l-85.344-128h-173.664q-17.664 0-30.176-12.672t-12.512-30.688v-468.64q0-17.664 12.512-30.176t30.176-12.512h768q18.016 0 30.336 12.16t12.32 29.824v468.64q0 18.016-12.672 31.008t-29.984 13.024h-173.664z" />
<glyph unicode="&#xe90b;" glyph-name="check" d="M896 746.656q18.336 0 30.496-12.16t12.16-30.496q0-18.016-12.32-30.336l-512-512q-12.32-12.32-30.336-12.32t-30.336 12.32l-256 256q-12.32 12.32-12.32 30.336 0 18.336 12.16 30.496t30.496 12.16q18.016 0 30.336-12.32l225.664-226.016 481.664 482.016q12.32 12.32 30.336 12.32z" />
<glyph unicode="&#xe90c;" glyph-name="circle-check" d="M512 917.344q95.648 0 182.496-37.152t149.664-100 100-149.664 37.152-182.496-37.152-182.496-100-149.664-149.664-100-182.496-37.152-182.496 37.152-149.664 100-100 149.664-37.152 182.496 37.152 182.496 100 149.664 149.664 100 182.496 37.152zM512 832q-77.984 0-149.152-30.496t-122.496-81.824-81.824-122.496-30.496-149.152 30.496-149.152 81.824-122.496 122.496-81.824 149.152-30.496 149.152 30.496 122.496 81.824 81.824 122.496 30.496 149.152-30.496 149.152-81.824 122.496-122.496 81.824-149.152 30.496zM655.648 576.352q17.664 0 30.176-12.512t12.512-30.176-12.672-30.336l-180.992-180.992q-12.32-12.32-29.984-12.32-18.016 0-30.336 12.32l-90.656 90.336q-12.32 12.32-12.32 30.336 0 17.664 12.512 30.176t30.176 12.512 30.336-12.672l60.32-60.32 150.656 151.008q12.672 12.672 30.336 12.672z" />
<glyph unicode="&#xe90d;" glyph-name="circle-cross" d="M512 917.344q95.648 0 182.496-37.152t149.664-100 100-149.664 37.152-182.496-37.152-182.496-100-149.664-149.664-100-182.496-37.152-182.496 37.152-149.664 100-100 149.664-37.152 182.496 37.152 182.496 100 149.664 149.664 100 182.496 37.152zM512 832q-77.984 0-149.152-30.496t-122.496-81.824-81.824-122.496-30.496-149.152 30.496-149.152 81.824-122.496 122.496-81.824 149.152-30.496 149.152 30.496 122.496 81.824 81.824 122.496 30.496 149.152-30.496 149.152-81.824 122.496-122.496 81.824-149.152 30.496zM632.672 611.68q17.664 0 30.336-12.512t12.672-30.176-12.672-30.336l-90.656-90.656 90.656-90.336q12.672-12.672 12.672-29.984 0-17.664-12.672-30.176t-30.336-12.512-29.984 12.32l-90.656 90.336-90.336-90.336q-12.32-12.32-30.336-12.32-17.664 0-30.176 12.32t-12.512 29.984q0 18.016 12.32 30.336l90.656 90.336-90.656 90.656q-12.32 12.32-12.32 29.984t12.512 30.336 30.176 12.672 30.336-12.672l90.336-90.656 90.656 90.656q12.672 12.672 29.984 12.672z" />
<glyph unicode="&#xe90e;" glyph-name="circle-minus" d="M512 917.344q95.648 0 182.496-37.152t149.664-100 100-149.664 37.152-182.496-37.152-182.496-100-149.664-149.664-100-182.496-37.152-182.496 37.152-149.664 100-100 149.664-37.152 182.496 37.152 182.496 100 149.664 149.664 100 182.496 37.152zM512 832q-77.984 0-149.152-30.496t-122.496-81.824-81.824-122.496-30.496-149.152 30.496-149.152 81.824-122.496 122.496-81.824 149.152-30.496 149.152 30.496 122.496 81.824 81.824 122.496 30.496 149.152-30.496 149.152-81.824 122.496-122.496 81.824-149.152 30.496zM341.344 490.656h341.344q17.664 0 30.176-12.512t12.512-30.176-12.512-30.176-30.176-12.512h-341.344q-17.664 0-30.176 12.512t-12.512 30.176 12.512 30.176 30.176 12.512z" />
<glyph unicode="&#xe90f;" glyph-name="circle-plus" d="M512 917.344q95.648 0 182.496-37.152t149.664-100 100-149.664 37.152-182.496-37.152-182.496-100-149.664-149.664-100-182.496-37.152-182.496 37.152-149.664 100-100 149.664-37.152 182.496 37.152 182.496 100 149.664 149.664 100 182.496 37.152zM512 832q-77.984 0-149.152-30.496t-122.496-81.824-81.824-122.496-30.496-149.152 30.496-149.152 81.824-122.496 122.496-81.824 149.152-30.496 149.152 30.496 122.496 81.824 81.824 122.496 30.496 149.152-30.496 149.152-81.824 122.496-122.496 81.824-149.152 30.496zM512 661.344q17.664 0 30.176-12.512t12.512-30.176v-128h128q17.664 0 30.176-12.512t12.512-30.176-12.512-30.176-30.176-12.512h-128v-128q0-17.664-12.512-30.176t-30.176-12.512-30.176 12.512-12.512 30.176v128h-128q-17.664 0-30.176 12.512t-12.512 30.176 12.512 30.176 30.176 12.512h128v128q0 17.664 12.512 30.176t30.176 12.512z" />
<glyph unicode="&#xe910;" glyph-name="clipboard" d="M426.656 917.344h170.656q41.344 0 74.336-23.84t46.336-61.472h50.016q52.992 0 90.496-37.504t37.504-90.496v-597.344q0-52.992-37.504-90.496t-90.496-37.504h-512q-52.992 0-90.496 37.504t-37.504 90.496v597.344q0 52.992 37.504 90.496t90.496 37.504h50.016q13.312 37.664 46.336 61.472t74.336 23.84zM768 746.656h-50.016q-13.312-37.664-46.336-61.472t-74.336-23.84h-170.656q-41.344 0-74.336 23.84t-46.336 61.472h-50.016q-17.664 0-30.176-12.512t-12.512-30.176v-597.344q0-17.664 12.512-30.176t30.176-12.512h512q17.664 0 30.176 12.512t12.512 30.176v597.344q0 17.664-12.512 30.176t-30.176 12.512zM597.344 832h-170.656q-17.664 0-30.176-12.512t-12.512-30.176 12.512-30.176 30.176-12.512h170.656q17.664 0 30.176 12.512t12.512 30.176-12.512 30.176-30.176 12.512z" />
<glyph unicode="&#xe911;" glyph-name="clipboard-checked" d="M416 800v32.064c0 35.2 28.736 63.936 64.16 63.936h31.68c35.552 0 64.16-28.64 64.16-63.936v-32.064h64.128c17.632 0 31.872-14.304 31.872-31.968v-32.064c0-17.792-14.272-31.968-31.872-31.968h-288.288c-17.632 0-31.872 14.304-31.872 31.968v32.064c0 17.792 14.272 31.968 31.872 31.968h64.128zM384 832h-31.904c-35.328 0-64-28.512-64.096-64h-32.096c-35.296 0-63.904-28.48-63.904-64.128v-671.776c0-35.424 28.512-64.128 63.904-64.128h480.16c35.296 0 63.904 28.48 63.904 64.128v671.776c0 35.424-28.512 64.128-63.904 64.128h-32.096c-0.096 35.36-28.64 64-64.096 64h-31.904c-0.032 53.024-43.2 96-96.288 96h-31.424c-53.152 0-96.256-42.816-96.288-96v0 0zM704 736h32c17.44 0 32-14.368 32-32.096v-671.808c0-18.048-14.336-32.096-32-32.096h-480c-17.44 0-32 14.368-32 32.096v671.808c0 18.048 14.336 32.096 32 32.096h32c0.096-35.36 28.64-64 64.096-64h287.808c35.328 0 64 28.512 64.096 64v0 0zM496 800c8.832 0 16 7.168 16 16s-7.168 16-16 16c-8.832 0-16-7.168-16-16s7.168-16 16-16v0zM456.128 202.080l248.896 248.896-22.624 22.624-226.272-226.272-119.776 119.776-22.624-22.624 142.4-142.4z" />
<glyph unicode="&#xe912;" glyph-name="clipboard-checked2" d="M416 800v32.064c0 35.2 28.736 63.936 64.16 63.936h31.68c35.552 0 64.16-28.64 64.16-63.936v-32.064h64.128c17.632 0 31.872-14.304 31.872-31.968v-32.064c0-17.792-14.272-31.968-31.872-31.968h-288.288c-17.632 0-31.872 14.304-31.872 31.968v32.064c0 17.792 14.272 31.968 31.872 31.968h64.128zM704 768h32.096c35.424 0 63.904-28.704 63.904-64.128v-671.776c0-35.648-28.608-64.128-63.904-64.128h-480.16c-35.424 0-63.904 28.704-63.904 64.128v671.776c0 35.648 28.608 64.128 63.904 64.128h32.096c0-0.064 0-0.096 0-0.16v-31.68c0-35.424 28.608-64.16 64.096-64.16h287.808c35.392 0 64.096 28.608 64.096 64.16v31.68c0 0.064 0 0.096 0 0.16v0 0zM496 800c8.832 0 16 7.168 16 16s-7.168 16-16 16c-8.832 0-16-7.168-16-16s7.168-16 16-16v0zM456.128 202.080l248.896 248.896-22.624 22.624-226.272-226.272-119.776 119.776-22.624-22.624 142.4-142.4z" />
<glyph unicode="&#xe913;" glyph-name="clipboard-list" d="M416 800v32.064c0 35.2 28.736 63.936 64.16 63.936h31.68c35.552 0 64.16-28.64 64.16-63.936v-32.064h64.128c17.632 0 31.872-14.304 31.872-31.968v-32.064c0-17.792-14.272-31.968-31.872-31.968h-288.288c-17.632 0-31.872 14.304-31.872 31.968v32.064c0 17.792 14.272 31.968 31.872 31.968h64.128zM384 832h-31.904c-35.328 0-64-28.512-64.096-64h-32.096c-35.296 0-63.904-28.48-63.904-64.128v-671.776c0-35.424 28.512-64.128 63.904-64.128h480.16c35.296 0 63.904 28.48 63.904 64.128v671.776c0 35.424-28.512 64.128-63.904 64.128h-32.096c-0.096 35.36-28.64 64-64.096 64h-31.904c-0.032 53.024-43.2 96-96.288 96h-31.424c-53.152 0-96.256-42.816-96.288-96v0 0zM704 736h32c17.44 0 32-14.368 32-32.096v-671.808c0-18.048-14.336-32.096-32-32.096h-480c-17.44 0-32 14.368-32 32.096v671.808c0 18.048 14.336 32.096 32 32.096h32c0.096-35.36 28.64-64 64.096-64h287.808c35.328 0 64 28.512 64.096 64v0 0zM496 800c8.832 0 16 7.168 16 16s-7.168 16-16 16c-8.832 0-16-7.168-16-16s7.168-16 16-16v0zM448 512v-32h256v32h-256zM288 544h96v-96h-96v96zM320 512v-32h32v32h-32zM288 384h96v-96h-96v96zM320 352v-32h32v32h-32zM448 352v-32h256v32h-256zM288 224h96v-96h-96v96zM320 192v-32h32v32h-32zM448 192v-32h256v32h-256z" />
<glyph unicode="&#xe914;" glyph-name="clipboard-list2" d="M416 800v32.064c0 35.2 28.736 63.936 64.16 63.936h31.68c35.552 0 64.16-28.64 64.16-63.936v-32.064h64.128c17.632 0 31.872-14.304 31.872-31.968v-32.064c0-17.792-14.272-31.968-31.872-31.968h-288.288c-17.632 0-31.872 14.304-31.872 31.968v32.064c0 17.792 14.272 31.968 31.872 31.968h64.128zM704 768h32.096c35.424 0 63.904-28.704 63.904-64.128v-671.776c0-35.648-28.608-64.128-63.904-64.128h-480.16c-35.424 0-63.904 28.704-63.904 64.128v671.776c0 35.648 28.608 64.128 63.904 64.128h32.096c0-0.064 0-0.096 0-0.16v-31.68c0-35.424 28.608-64.16 64.096-64.16h287.808c35.392 0 64.096 28.608 64.096 64.16v31.68c0 0.064 0 0.096 0 0.16v0 0zM496 800c8.832 0 16 7.168 16 16s-7.168 16-16 16c-8.832 0-16-7.168-16-16s7.168-16 16-16v0zM448 512v-32h256v32h-256zM288 544v-96h96v96h-96zM320 512v-32h32v32h-32zM288 384v-96h96v96h-96zM320 352v-32h32v32h-32zM448 352v-32h256v32h-256zM288 224v-96h96v96h-96zM320 192v-32h32v32h-32zM448 192v-32h256v32h-256z" />
<glyph unicode="&#xe915;" glyph-name="clipboard-text" d="M416 800v32.064c0 35.2 28.736 63.936 64.16 63.936h31.68c35.552 0 64.16-28.64 64.16-63.936v-32.064h64.128c17.632 0 31.872-14.304 31.872-31.968v-32.064c0-17.792-14.272-31.968-31.872-31.968h-288.288c-17.632 0-31.872 14.304-31.872 31.968v32.064c0 17.792 14.272 31.968 31.872 31.968h64.128zM384 832h-31.904c-35.328 0-64-28.512-64.096-64h-32.096c-35.296 0-63.904-28.48-63.904-64.128v-671.776c0-35.424 28.512-64.128 63.904-64.128h480.16c35.296 0 63.904 28.48 63.904 64.128v671.776c0 35.424-28.512 64.128-63.904 64.128h-32.096c-0.096 35.36-28.64 64-64.096 64h-31.904c-0.032 53.024-43.2 96-96.288 96h-31.424c-53.152 0-96.256-42.816-96.288-96v0 0zM704 736h32c17.44 0 32-14.368 32-32.096v-671.808c0-18.048-14.336-32.096-32-32.096h-480c-17.44 0-32 14.368-32 32.096v671.808c0 18.048 14.336 32.096 32 32.096h32c0.096-35.36 28.64-64 64.096-64h287.808c35.328 0 64 28.512 64.096 64v0 0zM496 800c8.832 0 16 7.168 16 16s-7.168 16-16 16c-8.832 0-16-7.168-16-16s7.168-16 16-16v0zM288 544v-32h416v32h-416zM288 448v-32h416v32h-416zM288 352v-32h416v32h-416zM288 256v-32h416v32h-416zM288 160v-32h416v32h-416z" />
<glyph unicode="&#xe916;" glyph-name="clipboard-text2" d="M416 800v32.064c0 35.2 28.736 63.936 64.16 63.936h31.68c35.552 0 64.16-28.64 64.16-63.936v-32.064h64.128c17.632 0 31.872-14.304 31.872-31.968v-32.064c0-17.792-14.272-31.968-31.872-31.968h-288.288c-17.632 0-31.872 14.304-31.872 31.968v32.064c0 17.792 14.272 31.968 31.872 31.968h64.128zM704 768h32.096c35.424 0 63.904-28.704 63.904-64.128v-671.776c0-35.648-28.608-64.128-63.904-64.128h-480.16c-35.424 0-63.904 28.704-63.904 64.128v671.776c0 35.648 28.608 64.128 63.904 64.128h32.096c0-0.064 0-0.096 0-0.16v-31.68c0-35.424 28.608-64.16 64.096-64.16h287.808c35.392 0 64.096 28.608 64.096 64.16v31.68c0 0.064 0 0.096 0 0.16v0 0zM496 800c8.832 0 16 7.168 16 16s-7.168 16-16 16c-8.832 0-16-7.168-16-16s7.168-16 16-16v0zM288 544v-32h416v32h-416zM288 448v-32h416v32h-416zM288 352v-32h416v32h-416zM288 256v-32h416v32h-416zM288 160v-32h416v32h-416z" />
<glyph unicode="&#xe917;" glyph-name="clock" d="M512 917.344q95.648 0 182.496-37.152t149.664-100 100-149.664 37.152-182.496-37.152-182.496-100-149.664-149.664-100-182.496-37.152-182.496 37.152-149.664 100-100 149.664-37.152 182.496 37.152 182.496 100 149.664 149.664 100 182.496 37.152zM512 832q-77.984 0-149.152-30.496t-122.496-81.824-81.824-122.496-30.496-149.152 30.496-149.152 81.824-122.496 122.496-81.824 149.152-30.496 149.152 30.496 122.496 81.824 81.824 122.496 30.496 149.152-30.496 149.152-81.824 122.496-122.496 81.824-149.152 30.496zM512 746.656q17.664 0 30.176-12.512t12.512-30.176v-238.336l115.68-115.328q12.32-12.32 12.32-30.336t-12.32-30.336-30.336-12.32-30.336 12.32l-128 128q-12.32 12.32-12.32 30.336v256q0 17.664 12.512 30.176t30.176 12.512z" />
<glyph unicode="&#xe918;" glyph-name="cloud-download" d="M640 874.656q77.984 0 149.152-30.496t122.496-81.824 81.824-122.496 30.496-149.152q0-84.992-34.976-160.672t-96.672-129.152-140-77.472l20.992 20.64q18.016 18.336 28 42.656 9.344 22.656 9.344 49.312 0 6.656-0.352 9.344 59.36 41.344 93.824 105.824t34.528 139.52q0 60.672-23.68 116t-63.648 95.328-95.328 63.648-116 23.68q-55.328 0-106.496-19.84t-89.984-53.856-64.992-81.312-33.824-100.992h-88.672q-70.656 0-120.672-50.016t-50.016-120.672q0-38.656 15.136-71.68t39.84-54.176 54.816-32.992 60.832-11.808h50.016q11.648-29.312 29.984-48l37.664-37.344h-117.664q-69.664 0-128.512 34.336t-93.184 93.184-34.336 128.512 34.336 128.512 93.184 93.184 128.512 34.336h22.016q26.336 74.336 79.328 132.192t126.848 90.848 155.808 32.992zM554.656 533.344q17.664 0 30.176-12.512t12.512-30.176v-280.992l55.008 55.328q12.32 12.32 30.336 12.32 18.336 0 30.496-12.16t12.16-30.496q0-18.016-12.32-30.336l-128-128q-12.32-12.32-30.336-12.32t-30.336 12.32l-128 128q-12.32 13.024-12.32 30.336 0 17.664 12.512 30.176t30.176 12.512q18.016 0 30.336-12.32l55.008-55.328v280.992q0 17.664 12.512 30.176t30.176 12.512z" />
<glyph unicode="&#xe919;" glyph-name="cloud-upload" d="M640 874.656q77.984 0 149.152-30.496t122.496-81.824 81.824-122.496 30.496-149.152q0-72.672-26.496-139.648t-72.032-117.344-108.672-83.488-134.176-41.184v86.016q71.68 10.336 130.176 51.84t92.16 105.696 33.664 138.144q0 60.672-23.68 116t-63.648 95.328-95.328 63.648-116 23.68q-55.328 0-106.496-19.84t-89.984-53.856-64.992-81.312-33.824-100.992h-88.672q-70.656 0-120.672-50.016t-50.016-120.672q0-38.656 15.136-71.68t39.84-54.176 54.816-32.992 60.832-11.808h170.656v-85.344h-170.656q-69.664 0-128.512 34.336t-93.184 93.184-34.336 128.512 34.336 128.512 93.184 93.184 128.512 34.336h22.016q26.336 74.336 79.328 132.192t126.848 90.848 155.808 32.992zM554.656 533.344q17.664 0 30.336-12.672l128-128q12.32-12.32 12.32-29.984 0-18.336-12.16-30.496t-30.496-12.16q-18.016 0-30.336 12.32l-55.008 55.328v-280.992q0-17.664-12.512-30.176t-30.176-12.512-30.176 12.512-12.512 30.176v280.992l-55.008-55.328q-12.32-12.32-30.336-12.32-17.664 0-30.176 12.512t-12.512 30.176q0 16.992 12.32 29.984l128 128q12.672 12.672 30.336 12.672z" />
<glyph unicode="&#xe91a;" glyph-name="cog" d="M512 960q52.992 0 90.496-37.504t37.504-90.496v-22.016q15.648-5.344 37.664-15.328l15.328 15.328q37.664 37.664 90.656 37.664 52.64 0 90.336-37.664t37.664-90.336q0-52.992-37.664-90.656l-15.328-15.328q9.984-22.016 15.328-37.664h22.016q52.992 0 90.496-37.504t37.504-90.496-37.504-90.496-90.496-37.504h-22.016q-5.344-15.648-15.328-37.664l15.328-15.328q37.664-37.664 37.664-90.656 0-52.64-37.664-90.336t-90.336-37.664q-52.992 0-90.656 37.664l-15.328 15.328q-22.016-9.984-37.664-15.328v-22.016q0-52.992-37.504-90.496t-90.496-37.504-90.496 37.504-37.504 90.496v22.016q-15.648 5.344-37.664 15.328l-15.328-15.328q-37.664-37.664-90.336-37.664-52.992 0-90.496 37.664t-37.504 90.336q0 53.344 37.344 90.656l15.328 15.328q-9.984 22.016-15.328 37.664h-22.016q-52.992 0-90.496 37.504t-37.504 90.496 37.504 90.496 90.496 37.504h22.016q5.344 15.648 15.328 37.664l-15.328 15.328q-37.344 37.344-37.344 90.656 0 52.64 37.504 90.336t90.496 37.664q52.64 0 90.336-37.664l15.328-15.328q22.016 9.984 37.664 15.328v22.016q0 52.992 37.504 90.496t90.496 37.504zM512 874.656q-17.664 0-30.176-12.512t-12.512-30.176v-88.32q-74.656-10.656-136.32-56.32l-62.336 62.336q-12.672 12.672-29.984 12.672-17.664 0-30.176-12.512t-12.512-30.176q0-18.016 12.32-30.336l62.336-62.336q-45.664-61.664-56.32-136.32h-88.32q-17.664 0-30.176-12.512t-12.512-30.176 12.512-30.176 30.176-12.512h88.32q10.656-74.656 56.32-136.32l-62.336-62.336q-12.32-12.32-12.32-30.336 0-17.664 12.512-30.176t30.176-12.512q17.312 0 29.984 12.672l62.336 62.336q61.664-45.664 136.32-56.32v-88.32q0-17.664 12.512-30.176t30.176-12.512 30.176 12.512 12.512 30.176v88.32q74.656 10.656 136.32 56.32l62.336-62.336q12.672-12.672 30.336-12.672t30.176 12.512 12.512 30.176-12.672 30.336l-62.336 62.336q45.664 61.664 56.32 136.32h88.32q17.664 0 30.176 12.512t12.512 30.176-12.512 30.176-30.176 12.512h-88.32q-10.656 74.656-56.32 136.32l62.336 62.336q12.672 12.672 12.672 30.336t-12.512 30.176-30.176 12.512-30.336-12.672l-62.336-62.336q-61.664 45.664-136.32 56.32v88.32q0 17.664-12.512 30.176t-30.176 12.512zM512 618.656q70.656 0 120.672-50.016t50.016-120.672-50.016-120.672-120.672-50.016-120.672 50.016-50.016 120.672 50.016 120.672 120.672 50.016zM512 533.344q-35.328 0-60.32-24.992t-24.992-60.32 24.992-60.32 60.32-24.992 60.32 24.992 24.992 60.32-24.992 60.32-60.32 24.992z" />
<glyph unicode="&#xe91b;" glyph-name="command" d="M768 874.656q70.656 0 120.672-50.016t50.016-120.672-50.016-120.672-120.672-50.016h-85.344v-170.656h85.344q70.656 0 120.672-50.016t50.016-120.672-50.016-120.672-120.672-50.016-120.672 50.016-50.016 120.672v85.344h-170.656v-85.344q0-70.656-50.016-120.672t-120.672-50.016-120.672 50.016-50.016 120.672 50.016 120.672 120.672 50.016h85.344v170.656h-85.344q-70.656 0-120.672 50.016t-50.016 120.672 50.016 120.672 120.672 50.016 120.672-50.016 50.016-120.672v-85.344h170.656v85.344q0 70.656 50.016 120.672t120.672 50.016zM341.344 192v85.344h-85.344q-35.328 0-60.32-24.992t-24.992-60.32 24.992-60.32 60.32-24.992 60.32 24.992 24.992 60.32zM256 789.344q-35.328 0-60.32-24.992t-24.992-60.32 24.992-60.32 60.32-24.992h85.344v85.344q0 35.328-24.992 60.32t-60.32 24.992zM597.344 362.656v170.656h-170.656v-170.656h170.656zM768 277.344h-85.344v-85.344q0-35.328 24.992-60.32t60.32-24.992 60.32 24.992 24.992 60.32-24.992 60.32-60.32 24.992zM768 789.344q-35.328 0-60.32-24.992t-24.992-60.32v-85.344h85.344q35.328 0 60.32 24.992t24.992 60.32-24.992 60.32-60.32 24.992z" />
<glyph unicode="&#xe91c;" glyph-name="content-left" d="M170.656 917.344h170.656q52.992 0 90.496-37.504t37.504-90.496v-682.656q0-52.992-37.504-90.496t-90.496-37.504h-170.656q-52.992 0-90.496 37.504t-37.504 90.496v682.656q0 52.992 37.504 90.496t90.496 37.504zM341.344 832h-170.656q-17.664 0-30.176-12.512t-12.512-30.176v-682.656q0-17.664 12.512-30.176t30.176-12.512h170.656q17.664 0 30.176 12.512t12.512 30.176v682.656q0 17.664-12.512 30.176t-30.176 12.512zM682.656 405.344h170.656q52.992 0 90.496-37.504t37.504-90.496v-170.656q0-52.992-37.504-90.496t-90.496-37.504h-170.656q-52.992 0-90.496 37.504t-37.504 90.496v170.656q0 52.992 37.504 90.496t90.496 37.504zM853.344 320h-170.656q-17.664 0-30.176-12.512t-12.512-30.176v-170.656q0-17.664 12.512-30.176t30.176-12.512h170.656q17.664 0 30.176 12.512t12.512 30.176v170.656q0 17.664-12.512 30.176t-30.176 12.512zM682.656 917.344h170.656q52.992 0 90.496-37.504t37.504-90.496v-170.656q0-52.992-37.504-90.496t-90.496-37.504h-170.656q-52.992 0-90.496 37.504t-37.504 90.496v170.656q0 52.992 37.504 90.496t90.496 37.504zM853.344 832h-170.656q-17.664 0-30.176-12.512t-12.512-30.176v-170.656q0-17.664 12.512-30.176t30.176-12.512h170.656q17.664 0 30.176 12.512t12.512 30.176v170.656q0 17.664-12.512 30.176t-30.176 12.512z" />
<glyph unicode="&#xe91d;" glyph-name="content-right" d="M682.656 917.344h170.656q52.992 0 90.496-37.504t37.504-90.496v-682.656q0-52.992-37.504-90.496t-90.496-37.504h-170.656q-52.992 0-90.496 37.504t-37.504 90.496v682.656q0 52.992 37.504 90.496t90.496 37.504zM170.656 405.344h170.656q52.992 0 90.496-37.504t37.504-90.496v-170.656q0-52.992-37.504-90.496t-90.496-37.504h-170.656q-52.992 0-90.496 37.504t-37.504 90.496v170.656q0 52.992 37.504 90.496t90.496 37.504zM341.344 320h-170.656q-17.664 0-30.176-12.512t-12.512-30.176v-170.656q0-17.664 12.512-30.176t30.176-12.512h170.656q17.664 0 30.176 12.512t12.512 30.176v170.656q0 17.664-12.512 30.176t-30.176 12.512zM170.656 917.344h170.656q52.992 0 90.496-37.504t37.504-90.496v-170.656q0-52.992-37.504-90.496t-90.496-37.504h-170.656q-52.992 0-90.496 37.504t-37.504 90.496v170.656q0 52.992 37.504 90.496t90.496 37.504zM341.344 832h-170.656q-17.664 0-30.176-12.512t-12.512-30.176v-170.656q0-17.664 12.512-30.176t30.176-12.512h170.656q17.664 0 30.176 12.512t12.512 30.176v170.656q0 17.664-12.512 30.176t-30.176 12.512zM853.344 832h-170.656q-17.664 0-30.176-12.512t-12.512-30.176v-682.656q0-17.664 12.512-30.176t30.176-12.512h170.656q17.664 0 30.176 12.512t12.512 30.176v682.656q0 17.664-12.512 30.176t-30.176 12.512z" />
<glyph unicode="&#xe91e;" glyph-name="contract" d="M725.344 917.344q17.664 0 30.176-12.512t12.512-30.176v-128q0-17.664 12.512-30.176t30.176-12.512h128q17.664 0 30.176-12.512t12.512-30.176-12.512-30.176-30.176-12.512h-128q-52.992 0-90.496 37.504t-37.504 90.496v128q0 17.664 12.512 30.176t30.176 12.512zM85.344 277.344h128q52.992 0 90.496-37.504t37.504-90.496v-128q0-17.664-12.512-30.176t-30.176-12.512-30.176 12.512-12.512 30.176v128q0 17.664-12.512 30.176t-30.176 12.512h-128q-17.664 0-30.176 12.512t-12.512 30.176 12.512 30.176 30.176 12.512zM298.656 917.344q17.664 0 30.176-12.512t12.512-30.176v-128q0-52.992-37.504-90.496t-90.496-37.504h-128q-17.664 0-30.176 12.512t-12.512 30.176 12.512 30.176 30.176 12.512h128q17.664 0 30.176 12.512t12.512 30.176v128q0 17.664 12.512 30.176t30.176 12.512zM810.656 277.344h128q17.664 0 30.176-12.512t12.512-30.176-12.512-30.176-30.176-12.512h-128q-17.664 0-30.176-12.512t-12.512-30.176v-128q0-17.664-12.512-30.176t-30.176-12.512-30.176 12.512-12.512 30.176v128q0 52.992 37.504 90.496t90.496 37.504z" />
<glyph unicode="&#xe91f;" glyph-name="cross" d="M810.656 789.344q18.336 0 30.496-12.16t12.16-30.496q0-18.016-12.32-30.336l-268.672-268.32 268.672-268.32q12.32-12.32 12.32-30.336 0-18.336-12.16-30.496t-30.496-12.16q-18.016 0-30.336 12.32l-268.32 268.672-268.32-268.672q-12.32-12.32-30.336-12.32-18.336 0-30.496 12.16t-12.16 30.496q0 18.016 12.32 30.336l268.672 268.32-268.672 268.32q-12.32 12.32-12.32 30.336 0 18.336 12.16 30.496t30.496 12.16q18.016 0 30.336-12.32l268.32-268.672 268.32 268.672q12.32 12.32 30.336 12.32z" />
<glyph unicode="&#xe920;" glyph-name="delete" d="M341.344 832h554.656q52.992 0 90.496-37.504t37.504-90.496v-512q0-52.992-37.504-90.496t-90.496-37.504h-554.656l-341.344 384zM896 746.656h-516.352l-265.344-298.656 265.344-298.656h516.352q17.664 0 30.176 12.512t12.512 30.176v512q0 17.664-12.512 30.176t-30.176 12.512zM810.656 576q0-18.016-12.32-30.336l-98.016-97.664 98.016-97.664q12.32-12.32 12.32-30.336 0-18.336-12.16-30.496t-30.496-12.16q-18.016 0-30.336 12.32l-97.664 98.016-97.664-98.016q-12.32-12.32-30.336-12.32-17.664 0-30.176 12.512t-12.512 30.176q0 17.312 12.32 30.336l98.016 97.664-98.016 97.664q-12.32 13.024-12.32 30.336 0 17.664 12.512 30.176t30.176 12.512q18.016 0 30.336-12.32l97.664-98.016 97.664 98.016q12.32 12.32 30.336 12.32 18.336 0 30.496-12.16t12.16-30.496z" />
<glyph unicode="&#xe921;" glyph-name="download" d="M640 789.344h170.656q52.992 0 90.496-37.504t37.504-90.496v-597.344q0-52.992-37.504-90.496t-90.496-37.504h-597.344q-52.992 0-90.496 37.504t-37.504 90.496v597.344q0 52.992 37.504 90.496t90.496 37.504h170.656v-85.344h-170.656q-17.664 0-30.176-12.512t-12.512-30.176v-597.344q0-17.664 12.512-30.176t30.176-12.512h597.344q17.664 0 30.176 12.512t12.512 30.176v597.344q0 17.664-12.512 30.176t-30.176 12.512h-170.656v85.344zM512 960q17.664 0 30.176-12.512t12.512-30.176v-536.992l97.664 98.016q12.32 12.32 30.336 12.32 18.336 0 30.496-12.16t12.16-30.496q0-18.016-12.32-30.336l-170.656-170.656q-12.32-12.32-30.336-12.32t-30.336 12.32l-170.656 170.656q-12.32 13.024-12.32 30.336 0 17.664 12.512 30.176t30.176 12.512q18.016 0 30.336-12.32l97.664-98.016v536.992q0 17.664 12.512 30.176t30.176 12.512z" />
<glyph unicode="&#xe922;" glyph-name="ellipsis" d="M853.344 576q52.992 0 90.496-37.504t37.504-90.496-37.504-90.496-90.496-37.504-90.496 37.504-37.504 90.496 37.504 90.496 90.496 37.504zM170.656 576q52.992 0 90.496-37.504t37.504-90.496-37.504-90.496-90.496-37.504-90.496 37.504-37.504 90.496 37.504 90.496 90.496 37.504zM170.656 490.656q-17.664 0-30.176-12.512t-12.512-30.176 12.512-30.176 30.176-12.512 30.176 12.512 12.512 30.176-12.512 30.176-30.176 12.512zM512 576q52.992 0 90.496-37.504t37.504-90.496-37.504-90.496-90.496-37.504-90.496 37.504-37.504 90.496 37.504 90.496 90.496 37.504zM512 490.656q-17.664 0-30.176-12.512t-12.512-30.176 12.512-30.176 30.176-12.512 30.176 12.512 12.512 30.176-12.512 30.176-30.176 12.512zM853.344 490.656q-17.664 0-30.176-12.512t-12.512-30.176 12.512-30.176 30.176-12.512 30.176 12.512 12.512 30.176-12.512 30.176-30.176 12.512z" />
<glyph unicode="&#xe923;" glyph-name="esc" d="M559.008 914.976q86.304-8.672 163.84-47.648t136.16-103.328q57.696-63.328 89.696-143.648 32.672-82.976 32.672-172.32 0-95.648-36.992-182.656-34.336-82.336-100.352-149.344-66.976-66.016-149.344-100.352-87.008-36.992-182.656-36.992-89.344 0-172.32 32.672-80.352 32-143.648 89.696-64.352 58.656-103.328 136.16t-47.648 163.84q-1.664 18.976 10.848 32.992t31.84 13.984q16.352 0 28.512-11.008t13.824-27.36q7.008-71.008 38.816-134.304t84.832-111.328q51.68-47.648 117.344-73.344 68-26.656 141.024-26.656 78.336 0 149.344 29.984 67.328 28.32 122.336 82.336 54.016 55.008 82.336 122.336 29.984 71.008 29.984 149.344 0 72.992-26.656 141.024-25.696 65.664-73.344 117.344-48 52.992-111.328 84.832t-134.304 38.816q-16.352 1.664-27.36 13.824t-11.008 28.512q0 12.672 4.832 21.664t12.832 13.312 15.136 6.016 14.176 1.664zM85.344 917.344h256q17.664 0 30.176-12.512t12.512-30.176-12.512-30.176-30.176-12.512h-152.992l354.016-354.016q12.32-12 12.32-29.984 0-18.336-12.16-30.496t-30.496-12.16q-18.016 0-30.336 12.32l-353.664 354.016v-152.992q0-17.664-12.512-30.176t-30.176-12.512-30.176 12.512-12.512 30.176v256q0 17.664 12.512 30.176t30.176 12.512z" />
<glyph unicode="&#xe924;" glyph-name="expand" d="M725.344 917.344h128q52.992 0 90.496-37.504t37.504-90.496v-128q0-17.664-12.512-30.176t-30.176-12.512-30.176 12.512-12.512 30.176v128q0 17.664-12.512 30.176t-30.176 12.512h-128q-17.664 0-30.176 12.512t-12.512 30.176 12.512 30.176 30.176 12.512zM85.344 277.344q17.664 0 30.176-12.512t12.512-30.176v-128q0-17.664 12.512-30.176t30.176-12.512h128q17.664 0 30.176-12.512t12.512-30.176-12.512-30.176-30.176-12.512h-128q-52.992 0-90.496 37.504t-37.504 90.496v128q0 17.664 12.512 30.176t30.176 12.512zM170.656 917.344h128q17.664 0 30.176-12.512t12.512-30.176-12.512-30.176-30.176-12.512h-128q-17.664 0-30.176-12.512t-12.512-30.176v-128q0-17.664-12.512-30.176t-30.176-12.512-30.176 12.512-12.512 30.176v128q0 52.992 37.504 90.496t90.496 37.504zM938.656 277.344q17.664 0 30.176-12.512t12.512-30.176v-128q0-52.992-37.504-90.496t-90.496-37.504h-128q-17.664 0-30.176 12.512t-12.512 30.176 12.512 30.176 30.176 12.512h128q17.664 0 30.176 12.512t12.512 30.176v128q0 17.664 12.512 30.176t30.176 12.512z" />
<glyph unicode="&#xe925;" glyph-name="eye" d="M512 832q69.664 0 135.52-21.152t115.488-55.008 93.472-74.848 73.696-82.016 51.68-74.848 32.16-54.816l9.984-21.344q-2.336-4.992-6.304-13.472t-18.816-34.688-31.648-51.68-44.32-60-56.832-64.352-69.504-60.16-82.336-51.488-94.848-34.688-107.36-13.472q-69.664 0-135.52 21.152t-115.488 54.816-93.472 74.336-73.696 81.504-51.68 74.496-32.16 55.008l-9.984 20.992q2.336 4.992 6.304 13.472t18.816 34.816 31.648 51.84 44.32 60.32 56.832 64.672 69.504 60.32 82.336 51.84 94.848 34.816 107.36 13.472zM512 746.656q-46.688 0-91.648-12.32t-81.152-31.84-70.656-47.136-59.648-54.496-48.864-57.696-37.664-52.832-26.336-44q12.32-21.664 26.336-43.52t37.664-52.352 48.864-56.992 59.648-53.856 70.656-46.688 81.152-31.488 91.648-12.16 91.648 12.32 81.152 31.648 70.656 46.848 59.648 54.176 48.864 57.344 37.664 52.64 26.336 43.648q-12.32 21.664-26.336 43.648t-37.664 52.64-48.864 57.344-59.648 54.176-70.656 46.848-81.152 31.648-91.648 12.32zM512 618.656q70.656 0 120.672-50.016t50.016-120.672-50.016-120.672-120.672-50.016-120.672 50.016-50.016 120.672 50.016 120.672 120.672 50.016zM512 533.344q-35.328 0-60.32-24.992t-24.992-60.32 24.992-60.32 60.32-24.992 60.32 24.992 24.992 60.32-24.992 60.32-60.32 24.992z" />
<glyph unicode="&#xe926;" glyph-name="fast-forward" d="M469.344 789.344q17.664 0 29.984-12.32l298.656-298.656q12.672-12.672 12.672-30.336t-12.672-30.336l-298.656-298.656q-12.32-12.32-29.984-12.32t-30.176 12.512-12.512 30.176q0 18.016 12.32 30.336l268.32 268.32-268.32 268.32q-12.32 12.32-12.32 30.336 0 18.336 12.16 30.496t30.496 12.16zM213.344 789.344q17.664 0 29.984-12.32l298.656-298.656q12.672-12.672 12.672-30.336t-12.672-30.336l-298.656-298.656q-12.32-12.32-29.984-12.32t-30.176 12.512-12.512 30.176q0 18.016 12.32 30.336l268.32 268.32-268.32 268.32q-12.32 12.32-12.32 30.336 0 18.336 12.16 30.496t30.496 12.16z" />
<glyph unicode="&#xe927;" glyph-name="folder" d="M170.656 874.656h213.344l85.344-128h384q52.992 0 90.496-37.504t37.504-90.496v-469.344q0-52.992-37.504-90.496t-90.496-37.504h-682.656q-52.992 0-90.496 37.504t-37.504 90.496v597.344q0 52.992 37.504 90.496t90.496 37.504zM423.68 661.344l-82.336 128h-170.656q-17.664 0-30.176-12.512t-12.512-30.176v-597.344q0-17.664 12.512-30.176t30.176-12.512h682.656q17.664 0 30.176 12.512t12.512 30.176v469.344q0 17.664-12.512 30.176t-30.176 12.512h-429.664z" />
<glyph unicode="&#xe928;" glyph-name="globe" d="M512 917.344q12 0 18.016-0.352 61.984-2.336 120.48-20.48t108.16-48.864 91.168-73.824 70.304-93.824 45.024-110.176 16.16-121.824-16.16-121.824-45.024-110.176-70.304-93.824-91.168-73.824-108.16-48.864-120.48-20.48q-6.016-0.352-18.016-0.352t-18.016 0.352q-61.984 2.336-120.48 20.48t-108.16 48.864-91.168 73.824-70.304 93.824-45.024 110.176-16.16 121.824 16.16 121.824 45.024 110.176 70.304 93.824 91.168 73.824 108.16 48.864 120.48 20.48q6.016 0.352 18.016 0.352zM300.32 405.344h-169.984q13.312-119.008 91.648-208.992t192.672-120.032q-43.36 65.664-75.52 148.832t-38.816 180.192zM638.336 405.344h-252.672q3.328-42.656 13.824-85.344t23.52-75.52 29.984-64.864 30.688-52.64 28.32-39.68q14.688 18.976 28.32 39.84t30.688 52.832 29.984 64.864 23.52 75.36 13.824 85.152zM414.688 819.68q-114.336-29.984-192.672-119.968t-91.648-208.992h169.984q11.648 173.984 114.336 328.992zM893.664 405.344h-169.696q-12.32-174.336-114.688-328.992 114.336 29.984 192.672 120.032t91.648 208.992zM512 808.672q-14.688-18.976-28.16-39.84t-30.688-52.832-30.176-64.864-23.52-75.36-13.824-85.152h252.672q-3.328 42.656-13.824 85.344t-23.52 75.52-29.984 64.864-30.688 52.64-28.32 39.68zM609.312 819.68q102.304-154.656 114.688-328.992h169.696q-13.312 119.008-91.648 208.992t-192.672 120.032z" />
<glyph unicode="&#xe929;" glyph-name="grid" d="M682.656 917.344h170.656q52.992 0 90.496-37.504t37.504-90.496v-170.656q0-52.992-37.504-90.496t-90.496-37.504h-170.656q-52.992 0-90.496 37.504t-37.504 90.496v170.656q0 52.992 37.504 90.496t90.496 37.504zM170.656 405.344h170.656q52.992 0 90.496-37.504t37.504-90.496v-170.656q0-52.992-37.504-90.496t-90.496-37.504h-170.656q-52.992 0-90.496 37.504t-37.504 90.496v170.656q0 52.992 37.504 90.496t90.496 37.504zM341.344 320h-170.656q-17.664 0-30.176-12.512t-12.512-30.176v-170.656q0-17.664 12.512-30.176t30.176-12.512h170.656q17.664 0 30.176 12.512t12.512 30.176v170.656q0 17.664-12.512 30.176t-30.176 12.512zM170.656 917.344h170.656q52.992 0 90.496-37.504t37.504-90.496v-170.656q0-52.992-37.504-90.496t-90.496-37.504h-170.656q-52.992 0-90.496 37.504t-37.504 90.496v170.656q0 52.992 37.504 90.496t90.496 37.504zM341.344 832h-170.656q-17.664 0-30.176-12.512t-12.512-30.176v-170.656q0-17.664 12.512-30.176t30.176-12.512h170.656q17.664 0 30.176 12.512t12.512 30.176v170.656q0 17.664-12.512 30.176t-30.176 12.512zM682.656 405.344h170.656q52.992 0 90.496-37.504t37.504-90.496v-170.656q0-52.992-37.504-90.496t-90.496-37.504h-170.656q-52.992 0-90.496 37.504t-37.504 90.496v170.656q0 52.992 37.504 90.496t90.496 37.504zM853.344 320h-170.656q-17.664 0-30.176-12.512t-12.512-30.176v-170.656q0-17.664 12.512-30.176t30.176-12.512h170.656q17.664 0 30.176 12.512t12.512 30.176v170.656q0 17.664-12.512 30.176t-30.176 12.512zM853.344 832h-170.656q-17.664 0-30.176-12.512t-12.512-30.176v-170.656q0-17.664 12.512-30.176t30.176-12.512h170.656q17.664 0 30.176 12.512t12.512 30.176v170.656q0 17.664-12.512 30.176t-30.176 12.512z" />
<glyph unicode="&#xe92a;" glyph-name="grid-2" d="M170.656 917.344h682.656q52.992 0 90.496-37.504t37.504-90.496v-682.656q0-52.992-37.504-90.496t-90.496-37.504h-682.656q-52.992 0-90.496 37.504t-37.504 90.496v682.656q0 52.992 37.504 90.496t90.496 37.504zM469.344 64v341.344h-341.344v-298.656q0-17.664 12.512-30.176t30.176-12.512h298.656zM469.344 490.656v341.344h-298.656q-17.664 0-30.176-12.512t-12.512-30.176v-298.656h341.344zM896 106.656v298.656h-341.344v-341.344h298.656q17.664 0 30.176 12.512t12.512 30.176zM853.344 832h-298.656v-341.344h341.344v298.656q0 17.664-12.512 30.176t-30.176 12.512z" />
<glyph unicode="&#xe92b;" glyph-name="heart" d="M753.312 874.656q69.664 0 128.512-34.336t93.184-93.184 34.336-128.512q0-50.016-19.168-97.152t-55.84-83.84l-422.304-422.304-422.304 422.304q-36.64 36.64-55.84 83.84t-19.168 97.152q0 69.664 34.336 128.512t93.184 93.184 128.512 34.336q50.336 0 97.152-18.976t83.84-56.032l60.32-60.32 60.32 60.32q36.64 36.64 83.84 55.84t97.152 19.168zM753.312 789.344q-33.312 0-64.672-12.672t-55.968-37.344l-120.672-120.672-120.672 120.672q-24.672 24.672-56.032 37.344t-64.672 12.672q-46.688 0-85.856-22.816t-61.984-61.984-22.816-85.856q0-33.312 12.672-64.672t37.344-56.032l361.984-361.984 361.984 361.984q24.672 24.672 37.344 56.032t12.672 64.672q0 46.688-22.816 85.856t-61.984 61.984-85.856 22.816z" />
<glyph unicode="&#xe92c;" glyph-name="inbox" d="M512 917.344q17.664 0 30.176-12.512t12.512-30.176v-494.336l140.32 140.672q12.32 12.32 30.336 12.32 18.336 0 30.496-12.16t12.16-30.496q0-18.016-12.32-30.336l-213.344-213.344q-12.32-12.32-30.336-12.32t-30.336 12.32l-213.344 213.344q-12.32 13.024-12.32 30.336 0 17.664 12.512 30.176t30.176 12.512q18.016 0 30.336-12.32l140.32-140.672v494.336q0 17.664 12.512 30.176t30.176 12.512zM938.656 320q17.664 0 30.176-12.512t12.512-30.176v-170.656q0-53.344-36.992-90.336-37.664-37.664-89.984-37.664h-683.648q-52.352 0-90.656 37.344-37.344 38.304-37.344 90.656v170.656q0 17.664 12.512 30.176t30.176 12.512 30.176-12.512 12.512-30.176v-170.656q0-17.664 12.512-30.176t30.176-12.512h683.648q17.312 0 29.472 12.512t12.16 30.176v170.656q0 17.664 12.512 30.176t30.176 12.512z" />
<glyph unicode="&#xe92d;" glyph-name="link" d="M725.344 917.344q50.336 0 97.152-18.976t83.84-55.968 56.032-83.84 18.976-97.152q0-50.016-19.168-97.152t-55.84-83.84l-128-128q-3.68-3.68-11.008-10.336-35.68-31.648-79.648-48.16t-90.336-16.512q-58.336 0-110.336 24.992-39.008 18.336-70.656 50.016t-50.016 70.656q24.992 24.992 60.32 24.992 12.32 0 24.992-3.68 21.664-34.976 56.672-56.672 40.992-24.992 88.992-24.992 33.312 0 64.672 12.672t56.032 37.344l128 128q24.672 24.672 37.344 56.032t12.672 64.672-12.672 64.672-37.344 56.032-56.032 37.344-64.672 12.672-64.672-12.672-56.032-37.344l-89.696-89.696q-42.656 11.648-88.32 11.648-7.328 0-20.64-0.672 6.656 7.328 10.336 11.008l128 128q36.64 36.64 83.84 55.84t97.152 19.168zM426.656 618.656q58.336 0 110.336-24.992 39.008-18.336 70.656-50.016t50.016-70.656q-24.992-24.992-60.32-24.992-12.32 0-24.992 3.68-21.664 34.976-56.672 56.672-40.992 24.992-88.992 24.992-33.312 0-64.672-12.672t-56.032-37.344l-128-128q-24.672-24.672-37.344-56.032t-12.672-64.672 12.672-64.672 37.344-56.032 56.032-37.344 64.672-12.672 64.672 12.672 56.032 37.344l89.696 89.696q42.656-11.648 88.32-11.648 7.328 0 20.64 0.672-6.656-7.328-10.336-11.008l-128-128q-36.992-36.992-83.84-56.032t-97.152-18.976q-50.016 0-97.152 19.168t-83.84 55.84q-36.992 36.992-56.032 83.84t-18.976 97.152 18.976 97.152 56.032 83.84l128 128q3.68 3.68 11.008 10.336 35.68 31.648 79.648 48.16t90.336 16.512z" />
<glyph unicode="&#xe92e;" glyph-name="location" d="M0 490.656l1024 469.344-469.344-1024-128 426.656zM571.36 177.312l279.328 609.312-609.312-279.328 253.984-76z" />
<glyph unicode="&#xe92f;" glyph-name="lock" d="M512 917.344q69.664 0 128.512-34.336t93.184-93.184 34.336-128.512v-170.656h85.344q52.992 0 90.496-37.504t37.504-90.496v-256q0-52.992-37.504-90.496t-90.496-37.504h-682.656q-52.992 0-90.496 37.504t-37.504 90.496v256q0 52.992 37.504 90.496t90.496 37.504h85.344v170.656q0 69.664 34.336 128.512t93.184 93.184 128.512 34.336zM853.344 405.344h-682.656q-17.664 0-30.176-12.512t-12.512-30.176v-256q0-17.664 12.512-30.176t30.176-12.512h682.656q17.664 0 30.176 12.512t12.512 30.176v256q0 17.664-12.512 30.176t-30.176 12.512zM512 832q-70.656 0-120.672-50.016t-50.016-120.672v-170.656h341.344v170.656q0 70.656-50.016 120.672t-120.672 50.016z" />
<glyph unicode="&#xe930;" glyph-name="lock2" d="M480 258.72v0c-18.656 6.592-32 24.384-32 45.28 0 26.496 21.504 48 48 48s48-21.504 48-48c0-20.896-13.344-38.688-32-45.28v-83.008c0-8.416-7.168-15.712-16-15.712-8.576 0-16 7.040-16 15.712v83.008zM256 512v0 0c-53.056-0.16-96-42.88-96-96.288v-319.392c0-53.184 43.072-96.288 96.288-96.288h479.424c53.184 0 96.288 42.784 96.288 96.288v319.392c0 53.088-42.912 96.16-96 96.288v112.032c0 132.544-107.712 239.968-240 239.968-132.544 0-240-107.424-240-239.968v-112.032zM352 512v111.968c0 79.744 64.48 144.032 144 144.032 79.36 0 144-64.48 144-144.032v-111.968h-288z" />
<glyph unicode="&#xe931;" glyph-name="lock-open" d="M640 194.72v-83.008c0-8.672 7.424-15.712 16-15.712 8.832 0 16 7.296 16 15.712v83.008c18.656 6.592 32 24.384 32 45.28 0 26.496-21.504 48-48 48s-48-21.504-48-48c0-20.896 13.344-38.688 32-45.28v0 0zM416 688c0 79.52-64.64 144-144 144-79.52 0-144-64.544-144-144v-127.968c0-26.304-21.504-48.032-48-48.032-26.688 0-48 21.504-48 48.032v128c0 132.576 107.456 239.968 240 239.968 132.288 0 240-107.456 240-239.968v-240.032h383.712c53.216 0 96.288-43.104 96.288-96.288v-319.392c0-53.536-43.104-96.288-96.288-96.288h-479.424c-53.216 0-96.288 43.104-96.288 96.288v319.392c0 53.44 42.944 96.16 96 96.288v240z" />
<glyph unicode="&#xe932;" glyph-name="lock-open2" d="M512 194.72v0 0c-18.656 6.592-32 24.384-32 45.28 0 26.496 21.504 48 48 48s48-21.504 48-48c0-20.896-13.344-38.688-32-45.28v-83.008c0-8.416-7.168-15.712-16-15.712-8.576 0-16 7.040-16 15.712v83.008zM768 656v32.032c0 132.544-107.712 239.968-240 239.968-132.544 0-240-107.424-240-239.968v-240.032c-53.056-0.16-96-42.88-96-96.288v-319.392c0-53.184 43.072-96.288 96.288-96.288h479.424c53.184 0 96.288 42.784 96.288 96.288v319.392c0 53.088-42.912 96.16-96 96.288h-383.136c-0.576 5.248-0.864 10.592-0.864 15.968v224.032c0 79.648 64.48 143.968 144 143.968 79.36 0 144-64.448 144-143.968v-115.968c0-33.152 21.312-60.032 48-60.032 26.496 0 48 27.136 48 60.032v83.968z" />
<glyph unicode="&#xe933;" glyph-name="marquee" d="M768 917.344h85.344q52.992 0 90.496-37.504t37.504-90.496v-85.344q0-17.664-12.512-30.176t-30.176-12.512-30.176 12.512-12.512 30.176v85.344q0 17.664-12.512 30.176t-30.176 12.512h-85.344q-17.664 0-30.176 12.512t-12.512 30.176 12.512 30.176 30.176 12.512zM85.344 234.656q17.664 0 30.176-12.512t12.512-30.176v-85.344q0-17.664 12.512-30.176t30.176-12.512h85.344q17.664 0 30.176-12.512t12.512-30.176-12.512-30.176-30.176-12.512h-85.344q-52.992 0-90.496 37.504t-37.504 90.496v85.344q0 17.664 12.512 30.176t30.176 12.512zM85.344 576q17.664 0 30.176-12.512t12.512-30.176v-170.656q0-17.664-12.512-30.176t-30.176-12.512-30.176 12.512-12.512 30.176v170.656q0 17.664 12.512 30.176t30.176 12.512zM426.656 64h170.656q17.664 0 30.176-12.512t12.512-30.176-12.512-30.176-30.176-12.512h-170.656q-17.664 0-30.176 12.512t-12.512 30.176 12.512 30.176 30.176 12.512zM170.656 917.344h85.344q17.664 0 30.176-12.512t12.512-30.176-12.512-30.176-30.176-12.512h-85.344q-17.664 0-30.176-12.512t-12.512-30.176v-85.344q0-17.664-12.512-30.176t-30.176-12.512-30.176 12.512-12.512 30.176v85.344q0 52.992 37.504 90.496t90.496 37.504zM938.656 234.656q17.664 0 30.176-12.512t12.512-30.176v-85.344q0-52.992-37.504-90.496t-90.496-37.504h-85.344q-17.664 0-30.176 12.512t-12.512 30.176 12.512 30.176 30.176 12.512h85.344q17.664 0 30.176 12.512t12.512 30.176v85.344q0 17.664 12.512 30.176t30.176 12.512zM938.656 576q17.664 0 30.176-12.512t12.512-30.176v-170.656q0-17.664-12.512-30.176t-30.176-12.512-30.176 12.512-12.512 30.176v170.656q0 17.664 12.512 30.176t30.176 12.512zM426.656 917.344h170.656q17.664 0 30.176-12.512t12.512-30.176-12.512-30.176-30.176-12.512h-170.656q-17.664 0-30.176 12.512t-12.512 30.176 12.512 30.176 30.176 12.512z" />
<glyph unicode="&#xe934;" glyph-name="marquee-minus" d="M768 917.344h85.344q52.992 0 90.496-37.504t37.504-90.496v-85.344q0-17.664-12.512-30.176t-30.176-12.512-30.176 12.512-12.512 30.176v85.344q0 17.664-12.512 30.176t-30.176 12.512h-85.344q-17.664 0-30.176 12.512t-12.512 30.176 12.512 30.176 30.176 12.512zM85.344 234.656q17.664 0 30.176-12.512t12.512-30.176v-85.344q0-17.664 12.512-30.176t30.176-12.512h85.344q17.664 0 30.176-12.512t12.512-30.176-12.512-30.176-30.176-12.512h-85.344q-52.992 0-90.496 37.504t-37.504 90.496v85.344q0 17.664 12.512 30.176t30.176 12.512zM85.344 576q17.664 0 30.176-12.512t12.512-30.176v-170.656q0-17.664-12.512-30.176t-30.176-12.512-30.176 12.512-12.512 30.176v170.656q0 17.664 12.512 30.176t30.176 12.512zM426.656 64h170.656q17.664 0 30.176-12.512t12.512-30.176-12.512-30.176-30.176-12.512h-170.656q-17.664 0-30.176 12.512t-12.512 30.176 12.512 30.176 30.176 12.512zM170.656 917.344h85.344q17.664 0 30.176-12.512t12.512-30.176-12.512-30.176-30.176-12.512h-85.344q-17.664 0-30.176-12.512t-12.512-30.176v-85.344q0-17.664-12.512-30.176t-30.176-12.512-30.176 12.512-12.512 30.176v85.344q0 52.992 37.504 90.496t90.496 37.504zM938.656 234.656q17.664 0 30.176-12.512t12.512-30.176v-85.344q0-52.992-37.504-90.496t-90.496-37.504h-85.344q-17.664 0-30.176 12.512t-12.512 30.176 12.512 30.176 30.176 12.512h85.344q17.664 0 30.176 12.512t12.512 30.176v85.344q0 17.664 12.512 30.176t30.176 12.512zM341.344 490.656h341.344q17.664 0 30.176-12.512t12.512-30.176-12.512-30.176-30.176-12.512h-341.344q-17.664 0-30.176 12.512t-12.512 30.176 12.512 30.176 30.176 12.512zM938.656 576q17.664 0 30.176-12.512t12.512-30.176v-170.656q0-17.664-12.512-30.176t-30.176-12.512-30.176 12.512-12.512 30.176v170.656q0 17.664 12.512 30.176t30.176 12.512zM426.656 917.344h170.656q17.664 0 30.176-12.512t12.512-30.176-12.512-30.176-30.176-12.512h-170.656q-17.664 0-30.176 12.512t-12.512 30.176 12.512 30.176 30.176 12.512z" />
<glyph unicode="&#xe935;" glyph-name="marquee-plus" d="M512 661.344q17.664 0 30.176-12.512t12.512-30.176v-128h128q17.664 0 30.176-12.512t12.512-30.176-12.512-30.176-30.176-12.512h-128v-128q0-17.664-12.512-30.176t-30.176-12.512-30.176 12.512-12.512 30.176v128h-128q-17.664 0-30.176 12.512t-12.512 30.176 12.512 30.176 30.176 12.512h128v128q0 17.664 12.512 30.176t30.176 12.512zM85.344 234.656q17.664 0 30.176-12.512t12.512-30.176v-85.344q0-17.664 12.512-30.176t30.176-12.512h85.344q17.664 0 30.176-12.512t12.512-30.176-12.512-30.176-30.176-12.512h-85.344q-52.992 0-90.496 37.504t-37.504 90.496v85.344q0 17.664 12.512 30.176t30.176 12.512zM85.344 576q17.664 0 30.176-12.512t12.512-30.176v-170.656q0-17.664-12.512-30.176t-30.176-12.512-30.176 12.512-12.512 30.176v170.656q0 17.664 12.512 30.176t30.176 12.512zM426.656 64h170.656q17.664 0 30.176-12.512t12.512-30.176-12.512-30.176-30.176-12.512h-170.656q-17.664 0-30.176 12.512t-12.512 30.176 12.512 30.176 30.176 12.512zM170.656 917.344h85.344q17.664 0 30.176-12.512t12.512-30.176-12.512-30.176-30.176-12.512h-85.344q-17.664 0-30.176-12.512t-12.512-30.176v-85.344q0-17.664-12.512-30.176t-30.176-12.512-30.176 12.512-12.512 30.176v85.344q0 52.992 37.504 90.496t90.496 37.504zM938.656 234.656q17.664 0 30.176-12.512t12.512-30.176v-85.344q0-52.992-37.504-90.496t-90.496-37.504h-85.344q-17.664 0-30.176 12.512t-12.512 30.176 12.512 30.176 30.176 12.512h85.344q17.664 0 30.176 12.512t12.512 30.176v85.344q0 17.664 12.512 30.176t30.176 12.512zM938.656 576q17.664 0 30.176-12.512t12.512-30.176v-170.656q0-17.664-12.512-30.176t-30.176-12.512-30.176 12.512-12.512 30.176v170.656q0 17.664 12.512 30.176t30.176 12.512zM426.656 917.344h170.656q17.664 0 30.176-12.512t12.512-30.176-12.512-30.176-30.176-12.512h-170.656q-17.664 0-30.176 12.512t-12.512 30.176 12.512 30.176 30.176 12.512zM768 917.344h85.344q52.992 0 90.496-37.504t37.504-90.496v-85.344q0-17.664-12.512-30.176t-30.176-12.512-30.176 12.512-12.512 30.176v85.344q0 17.664-12.512 30.176t-30.176 12.512h-85.344q-17.664 0-30.176 12.512t-12.512 30.176 12.512 30.176 30.176 12.512z" />
<glyph unicode="&#xe936;" glyph-name="maximize" d="M597.344 405.664q17.664 0 30.336-12.672l268.32-268.32v195.68q0 17.664 12.512 30.176t30.176 12.512 30.176-12.512 12.512-30.176v-298.656q0-17.664-12.672-30.336t-30.336-12.672h-298.656q-17.664 0-30.176 12.512t-12.512 30.176 12.512 30.176 30.176 12.512h195.68l-268.32 268.32q-12.32 13.024-12.32 30.336 0 17.664 12.512 30.336t30.176 12.672zM85.344 917.344h298.656q17.664 0 30.176-12.512t12.512-30.176-12.512-30.176-30.176-12.512h-195.68l268.32-268q12.672-12.672 12.672-30.336t-12.672-30.176-30.336-12.512q-16.992 0-30.336 12.32l-268 268.32v-195.68q0-17.664-12.512-30.176t-30.176-12.512-30.176 12.512-12.512 30.176v298.656q0 17.664 12.512 30.176t30.176 12.512z" />
<glyph unicode="&#xe937;" glyph-name="menu" d="M128 746.656h768q17.664 0 30.176-12.512t12.512-30.176-12.512-30.176-30.176-12.512h-768q-17.664 0-30.176 12.512t-12.512 30.176 12.512 30.176 30.176 12.512zM128 234.656h768q17.664 0 30.176-12.512t12.512-30.176-12.512-30.176-30.176-12.512h-768q-17.664 0-30.176 12.512t-12.512 30.176 12.512 30.176 30.176 12.512zM128 490.656h768q17.664 0 30.176-12.512t12.512-30.176-12.512-30.176-30.176-12.512h-768q-17.664 0-30.176 12.512t-12.512 30.176 12.512 30.176 30.176 12.512z" />
<glyph unicode="&#xe938;" glyph-name="minimize" d="M85.344 917.344q18.016 0 30.336-12.32l268.32-268.32v195.68q0 17.664 12.512 30.176t30.176 12.512 30.176-12.512 12.512-30.176v-298.656q0-17.664-12.672-30.336t-30.336-12.672h-298.656q-17.664 0-30.176 12.512t-12.512 30.176 12.512 30.176 30.176 12.512h195.68l-268.32 268.32q-12.32 12.32-12.32 30.336 0 18.336 12.16 30.496t30.496 12.16zM597.664 405.344h298.656q17.664 0 30.176-12.512t12.512-30.176-12.512-30.176-30.176-12.512h-195.68l268-268.32q12.672-12.672 12.672-30.336t-12.512-30.176-30.176-12.512q-18.016 0-30.336 12.32l-268.32 268.32v-195.68q0-17.664-12.512-30.176t-30.176-12.512-30.176 12.512-12.512 30.176v298.656q0 17.664 12.672 30.336t30.336 12.672z" />
<glyph unicode="&#xe939;" glyph-name="minus" d="M128 490.656h768q17.664 0 30.176-12.512t12.512-30.176-12.512-30.176-30.176-12.512h-768q-17.664 0-30.176 12.512t-12.512 30.176 12.512 30.176 30.176 12.512z" />
<glyph unicode="&#xe93a;" glyph-name="monitor" d="M170.656 874.656h682.656q52.992 0 90.496-37.504t37.504-90.496v-426.656q0-52.992-37.504-90.496t-90.496-37.504h-298.656v-85.344h128q17.664 0 30.176-12.512t12.512-30.176-12.512-30.176-30.176-12.512h-341.344q-17.664 0-30.176 12.512t-12.512 30.176 12.512 30.176 30.176 12.512h128v85.344h-298.656q-52.992 0-90.496 37.504t-37.504 90.496v426.656q0 52.992 37.504 90.496t90.496 37.504zM853.344 789.344h-682.656q-17.664 0-30.176-12.512t-12.512-30.176v-426.656q0-17.664 12.512-30.176t30.176-12.512h682.656q17.664 0 30.176 12.512t12.512 30.176v426.656q0 17.664-12.512 30.176t-30.176 12.512z" />
<glyph unicode="&#xe93b;" glyph-name="move" d="M512 960q18.016 0 30.336-12.32l150.656-151.008q12.672-12.672 12.672-30.336t-12.512-30.176-30.176-12.512-30.336 12.672l-77.984 77.984v-323.68h323.68l-77.984 77.984q-12.672 12.672-12.672 30.336t12.512 30.176 30.176 12.512 30.336-12.672l151.008-150.656q12.32-12.32 12.32-30.336t-12.32-29.984l-151.008-151.008q-12.672-12.672-30.336-12.672t-30.176 12.512-12.512 30.176 12.672 30.336l77.984 77.984h-323.68v-323.68l77.984 77.984q12.672 12.672 30.336 12.672t30.176-12.512 12.512-30.176-12.672-30.336l-150.656-151.008q-12.32-12.32-30.336-12.32-17.664 0-29.984 12.32l-151.008 151.008q-12.672 12.672-12.672 30.336t12.512 30.176 30.176 12.512 30.336-12.672l77.984-77.984v323.68h-323.68l77.984-77.984q12.672-12.672 12.672-30.336t-12.512-30.176-30.176-12.512-30.336 12.672l-151.008 150.656q-12.32 12.32-12.32 30.336t12.32 30.336l151.008 150.656q12.672 12.672 30.336 12.672t30.176-12.512 12.512-30.176-12.672-30.336l-77.984-77.984h323.68v323.68l-77.984-77.984q-12.672-12.672-30.336-12.672t-30.176 12.512-12.512 30.176 12.672 30.336l150.656 151.008q12.32 12.32 30.336 12.32z" />
<glyph unicode="&#xe93c;" glyph-name="notebook-list" d="M672 832v32h32v-32h32.096c35.424 0 63.904-28.704 63.904-64.128v-671.776c0-35.648-28.608-64.128-63.904-64.128h-480.16c-35.424 0-63.904 28.704-63.904 64.128v671.776c0 35.648 28.608 64.128 63.904 64.128h32.096v32h32v-32h96v32h32v-32h96v32h32v-32h96zM672 800h-96v-32h-32v32h-96v-32h-32v32h-96v-32h-32v32h-32c-17.664 0-32-14.048-32-32.096v-671.808c0-17.728 14.56-32.096 32-32.096h480c17.664 0 32 14.048 32 32.096v671.808c0 17.728-14.56 32.096-32 32.096h-32v-32h-32v32zM448 576v-32h256v32h-256zM288 608h96v-96h-96v96zM320 576v-32h32v32h-32zM288 448h96v-96h-96v96zM320 416v-32h32v32h-32zM448 416v-32h256v32h-256zM288 288h96v-96h-96v96zM320 256v-32h32v32h-32zM448 256v-32h256v32h-256z" />
<glyph unicode="&#xe93d;" glyph-name="notebook-list2" d="M288 896h32v-64h-32v64zM416 896h32v-64h-32v64zM544 896h32v-64h-32v64zM672 896h32v-64h-32v64zM320 256h32v-32h-32v32zM320 416h32v-32h-32v32zM320 576h32v-32h-32v32zM736.096 832c0 0-28.096 0-32.096 0v-64h-32v64h-96v-64h-32v64h-96v-64h-32v64h-96v-64h-32v64c-4 0-32.096 0-32.096 0-35.296 0-63.904-28.512-63.904-64.096v-671.808c0-35.392 28.512-64.096 63.904-64.096h480.192c35.296 0 63.904 28.512 63.904 64.096v671.808c0 35.392-28.512 64.096-63.904 64.096zM384 192h-96v96h96v-96zM384 352h-96v96h96v-96zM384 512h-96v96h96v-96zM704 224h-256v32h256v-32zM704 384h-256v32h256v-32zM704 544h-256v32h256v-32z" />
<glyph unicode="&#xe93e;" glyph-name="notice2" d="M496 864c-238.592 0-432-193.408-432-432s193.408-432 432-432 432 193.408 432 432-193.408 432-432 432zM496 96c-185.568 0-336 150.432-336 336s150.432 336 336 336 336-150.432 336-336-150.432-336-336-336zM496 640c-26.496 0-48-21.472-48-48v-161.984c0-26.496 21.504-48 48-48s48 21.504 48 48v161.984c0 26.528-21.504 48-48 48zM496 320c-26.496 0-48-21.504-48-48s21.504-48 48-48 48 21.504 48 48-21.504 48-48 48z" />
<glyph unicode="&#xe93f;" glyph-name="notice3" d="M496 848c-229.76 0-416-186.24-416-416s186.24-416 416-416 416 186.24 416 416-186.24 416-416 416zM496 196c-26.528 0-48 21.504-48 48s21.472 48 48 48c26.496 0 48-21.504 48-48s-21.504-48-48-48zM544 404c0-26.496-21.504-48-48-48-26.528 0-48 21.504-48 48v224c0 26.528 21.472 48 48 48 26.496 0 48-21.472 48-48v-224z" />
<glyph unicode="&#xe940;" glyph-name="notifications" d="M768 278.016l86.016-86.016v-41.984h-683.989v41.984l86.016 86.016v212.011c0 132.011 70.016 240 192 269.995v29.995c0 36.011 27.989 64 64 64s64-27.989 64-64v-29.995c121.984-29.995 192-139.989 192-269.995v-212.011zM512 22.016c-48 0-86.016 38.016-86.016 84.011h171.989c0-45.995-40.021-84.011-86.016-84.011z" />
<glyph unicode="&#xe941;" glyph-name="notifications_active" d="M512 22.016c-48 0-86.016 38.016-86.016 84.011h169.984c0-49.664-37.205-84.011-84.011-84.011zM768 489.984v-212.011l86.016-86.016v-41.984h-683.989v41.984l86.016 86.016v212.011c0 132.011 70.016 240 192 269.995v29.995c0 36.011 27.989 64 64 64s64-27.989 64-64v-29.995c121.984-29.995 192-139.989 192-269.995zM852.011 512c-6.016 114.005-64 212.011-150.016 274.005l59.989 59.989c102.016-77.995 169.984-198.016 176-333.995h-86.016zM324.011 786.005c-88.021-61.995-146.005-160-152.021-274.005h-86.016c6.016 136.021 73.984 256 176 333.995z" />
<glyph unicode="&#xe942;" glyph-name="notifications_none" d="M681.984 233.984v256c0 105.984-64 192-169.984 192s-169.984-86.016-169.984-192v-256h340.011zM768 278.016l86.016-86.016v-41.984h-683.989v41.984l86.016 86.016v212.011c0 132.011 70.016 240 192 269.995v29.995c0 36.011 27.989 64 64 64s64-27.989 64-64v-29.995c121.984-29.995 192-139.989 192-269.995v-212.011zM512 22.016c-45.995 0-86.016 38.016-86.016 84.011h171.989c0-45.995-40.021-84.011-86.016-84.011z" />
<glyph unicode="&#xe943;" glyph-name="notifications_off" d="M768 333.995l-381.995 402.005c9.984 4.011 20.011 9.984 29.995 13.995h2.005l11.989 6.016c6.016 2.005 11.989 2.005 18.005 4.011v29.995c0 36.011 27.989 64 64 64s64-27.989 64-64v-29.995c121.984-29.995 192-137.984 192-269.995v-155.989zM512 22.016c-48 0-86.016 36.011-86.016 84.011h171.989c0-48-38.016-84.011-86.016-84.011zM333.995 697.984c187.221-193.451 375.339-386.005 562.005-580.011l-54.016-54.016-86.016 86.016h-585.984v41.984l86.016 86.016v214.016c0 54.016 11.989 104.021 34.005 146.005l-120.021 118.016 54.016 56.021z" />
<glyph unicode="&#xe944;" glyph-name="open" d="M170.656 917.344h298.656q17.664 0 30.176-12.512t12.512-30.176-12.512-30.176-30.176-12.512h-298.656q-17.664 0-30.176-12.512t-12.512-30.176v-682.656q0-17.664 12.512-30.176t30.176-12.512h682.656q17.664 0 30.176 12.512t12.512 30.176v298.656q0 17.664 12.512 30.176t30.176 12.512 30.176-12.512 12.512-30.176v-298.656q0-52.992-37.504-90.496t-90.496-37.504h-682.656q-52.992 0-90.496 37.504t-37.504 90.496v682.656q0 52.992 37.504 90.496t90.496 37.504zM682.656 917.344h256q17.664 0 30.176-12.512t12.512-30.176v-256q0-17.664-12.512-30.176t-30.176-12.512-30.176 12.512-12.512 30.176v152.992l-354.016-354.016q-12.32-12.32-29.984-12.32-18.336 0-30.496 12.16t-12.16 30.496q0 17.664 12.32 29.984l354.016 354.016h-152.992q-17.664 0-30.176 12.512t-12.512 30.176 12.512 30.176 30.176 12.512z" />
<glyph unicode="&#xe945;" glyph-name="outbox" d="M512 915.328q18.016 0 30.336-12.32l213.344-213.344q12.32-12.32 12.32-30.336 0-18.336-12.16-30.496t-30.496-12.16q-18.016 0-30.336 12.32l-140.32 140.672v-494.336q0-17.664-12.512-30.176t-30.176-12.512-30.176 12.512-12.512 30.176v494.336l-140.32-140.672q-13.024-12.32-30.336-12.32-17.664 0-30.176 12.512t-12.512 30.176q0 17.312 12.32 30.336l213.344 213.344q12.32 12.32 30.336 12.32zM938.656 317.984q17.664 0 30.176-12.512t12.512-30.176v-170.656q0-53.344-36.992-90.336-37.664-37.664-89.984-37.664h-683.648q-52.352 0-90.656 37.344-37.344 38.304-37.344 90.656v170.656q0 17.664 12.512 30.176t30.176 12.512 30.176-12.512 12.512-30.176v-170.656q0-17.664 12.512-30.176t30.176-12.512h683.648q17.312 0 29.472 12.512t12.16 30.176v170.656q0 17.664 12.512 30.176t30.176 12.512z" />
<glyph unicode="&#xe946;" glyph-name="paper" d="M213.344 960h597.344q52.992 0 90.496-37.504t37.504-90.496v-768q0-52.992-37.504-90.496t-90.496-37.504h-597.344q-52.992 0-90.496 37.504t-37.504 90.496v768q0 52.992 37.504 90.496t90.496 37.504zM341.344 234.656h341.344q17.664 0 30.176-12.512t12.512-30.176-12.512-30.176-30.176-12.512h-341.344q-17.664 0-30.176 12.512t-12.512 30.176 12.512 30.176 30.176 12.512zM341.344 405.344h341.344q17.664 0 30.176-12.512t12.512-30.176-12.512-30.176-30.176-12.512h-341.344q-17.664 0-30.176 12.512t-12.512 30.176 12.512 30.176 30.176 12.512zM810.656 874.656h-597.344q-17.664 0-30.176-12.512t-12.512-30.176v-768q0-17.664 12.512-30.176t30.176-12.512h597.344q17.664 0 30.176 12.512t12.512 30.176v768q0 17.664-12.512 30.176t-30.176 12.512zM341.344 576h341.344q17.664 0 30.176-12.512t12.512-30.176-12.512-30.176-30.176-12.512h-341.344q-17.664 0-30.176 12.512t-12.512 30.176 12.512 30.176 30.176 12.512zM341.344 746.656h170.656q17.664 0 30.176-12.512t12.512-30.176-12.512-30.176-30.176-12.512h-170.656q-17.664 0-30.176 12.512t-12.512 30.176 12.512 30.176 30.176 12.512z" />
<glyph unicode="&#xe947;" glyph-name="paper-clip" d="M674.016 960q41.696 0 80-15.648 40.032-16 70.656-46.688 31.008-31.328 46.688-70.304 15.328-37.664 15.328-80t-15.328-80q-15.648-39.008-46.688-70.304l-392.672-392.672q-18.016-18.016-42.656-28.32-24.032-9.344-48-9.344t-48 9.344q-24.672 10.336-42.656 28.32-18.688 18.688-28 42.336-9.344 22.656-9.344 48 0 25.696 9.344 48.352 9.344 23.328 28 42.336l362.336 361.984q12.672 12.672 30.336 12.672 17.312 0 29.984-12.672t12.672-29.984q0-17.664-12.672-30.336l-362.336-361.984q-12.32-12.32-12.32-30.336 0-17.664 12.32-29.984 13.312-12.672 30.336-12.672t30.336 12.672l392.672 392.672q36.992 36.992 36.992 89.984t-36.992 89.984q-38.016 37.344-90.336 37.344-52.64 0-89.984-37.344l-393.696-391.68q-30.688-30.688-46.688-70.656-15.648-38.304-15.648-80.352 0-41.344 15.648-80.352 16-39.68 46.688-70.304 31.648-31.328 70.656-47.008t80.352-15.648 80.352 15.648 70.656 47.008l391.968 392.032q12.672 12.672 30.336 12.672 17.312 0 29.984-12.672t12.672-29.984q0-17.664-12.672-30.336l-392.032-392.032q-43.008-43.008-98.976-65.664-53.344-22.016-112.352-22.016-58.656 0-112.352 22.016-56.032 22.656-98.976 65.664-42.656 42.656-65.312 98.688-22.016 54.016-22.016 112.352 0 58.656 22.016 112.352 22.304 55.328 65.312 98.976h0.352l393.344 391.68q30.688 30.688 70.304 46.688 39.008 15.648 80 15.648z" />
<glyph unicode="&#xe948;" glyph-name="paper-stack" d="M384 960h426.656q52.992 0 90.496-37.504t37.504-90.496v-597.344q0-52.992-37.504-90.496t-90.496-37.504h-426.656q-52.992 0-90.496 37.504t-37.504 90.496v597.344q0 52.992 37.504 90.496t90.496 37.504zM170.656 781.984v-717.984q0-17.664 12.512-30.176t30.176-12.512h547.328q-13.312-37.664-46.336-61.472t-74.336-23.84h-426.656q-52.992 0-90.496 37.504t-37.504 90.496v597.344q0 41.344 23.84 74.336t61.472 46.336zM810.656 874.656h-426.656q-17.664 0-30.176-12.512t-12.512-30.176v-597.344q0-17.664 12.512-30.176t30.176-12.512h426.656q17.664 0 30.176 12.512t12.512 30.176v597.344q0 17.664-12.512 30.176t-30.176 12.512z" />
<glyph unicode="&#xe949;" glyph-name="pause" d="M682.656 832q52.992 0 90.496-37.504t37.504-90.496v-512q0-52.992-37.504-90.496t-90.496-37.504-90.496 37.504-37.504 90.496v512q0 52.992 37.504 90.496t90.496 37.504zM341.344 832q52.992 0 90.496-37.504t37.504-90.496v-512q0-52.992-37.504-90.496t-90.496-37.504-90.496 37.504-37.504 90.496v512q0 52.992 37.504 90.496t90.496 37.504zM341.344 746.656q-17.664 0-30.176-12.512t-12.512-30.176v-512q0-17.664 12.512-30.176t30.176-12.512 30.176 12.512 12.512 30.176v512q0 17.664-12.512 30.176t-30.176 12.512zM682.656 746.656q-17.664 0-30.176-12.512t-12.512-30.176v-512q0-17.664 12.512-30.176t30.176-12.512 30.176 12.512 12.512 30.176v512q0 17.664-12.512 30.176t-30.176 12.512z" />
<glyph unicode="&#xe94a;" glyph-name="pen-angled" d="M718.176 571.2l-361.152-361.6-83.392 83.392 361.344 361.408 83.2-83.2zM740.8 593.824l-83.168 83.168 55.264 55.296c12.512 12.512 32.768 12.416 45.344-0.096l37.76-37.664c12.544-12.512 12.64-32.8 0.16-45.312l-55.328-55.392zM252.928 268.448l79.84-79.84-100.32-19.744 20.48 99.616zM224 288l-32-160 160 32 466.56 466.56c25.088 25.088 25.152 65.728 0.32 90.56l-37.76 37.728c-24.928 24.928-65.184 25.056-90.56-0.32l-466.56-466.56z" />
<glyph unicode="&#xe94b;" glyph-name="pen-angled2" d="M763.296 571.296l55.2 55.2c25.088 25.088 25.216 65.696 0.288 90.592l-37.696 37.696c-24.896 24.896-65.216 25.088-90.592-0.288l-55.2-55.2 128-128zM228.704 292.704l-4.704-4.704-32-160 160 32 4.704 4.704zM251.328 315.328l361.408 361.408 128-128-361.408-361.408-128 128z" />
<glyph unicode="&#xe94c;" glyph-name="play" d="M170.656 64v768l640-384zM644.64 448l-388.64 233.344v-466.688z" />
<glyph unicode="&#xe94d;" glyph-name="plus" d="M512 874.656q17.664 0 30.176-12.512t12.512-30.176v-341.344h341.344q17.664 0 30.176-12.512t12.512-30.176-12.512-30.176-30.176-12.512h-341.344v-341.344q0-17.664-12.512-30.176t-30.176-12.512-30.176 12.512-12.512 30.176v341.344h-341.344q-17.664 0-30.176 12.512t-12.512 30.176 12.512 30.176 30.176 12.512h341.344v341.344q0 17.664 12.512 30.176t30.176 12.512z" />
<glyph unicode="&#xe94e;" glyph-name="power" d="M813.664 706.976q59.008-59.008 91.36-135.68 33.664-79.328 33.664-166.016t-33.664-166.016q-32.352-76.672-91.36-135.68t-135.68-91.36q-79.328-33.664-166.016-33.664t-166.016 33.664q-76.672 32.352-135.68 91.36t-91.36 135.68q-33.664 79.328-33.664 166.016t33.664 166.016q32.352 76.672 91.36 135.68 12.32 12.32 29.984 12.32t30.336-12.32 12.672-29.984-12.672-30.336q-47.008-47.008-73.344-108.32-26.656-64-26.656-132.992t26.656-132.992q26.336-61.312 73.344-108.32t108.32-73.344q64-26.656 132.992-26.656t132.992 26.656q61.312 26.336 108.32 73.344t73.344 108.32q26.656 64 26.656 132.992t-26.656 132.992q-26.336 61.312-73.344 108.32-12.672 12.672-12.672 30.336t12.672 29.984 30.336 12.32 29.984-12.32zM512 917.344q17.664 0 30.176-12.512t12.512-30.176v-426.656q0-17.664-12.512-30.176t-30.176-12.512-30.176 12.512-12.512 30.176v426.656q0 17.664 12.512 30.176t30.176 12.512z" />
<glyph unicode="&#xe94f;" glyph-name="printer" d="M384 874.656h256q52.992 0 90.496-37.504t37.504-90.496v-213.344h85.344q52.992 0 90.496-37.504t37.504-90.496v-170.656q0-52.992-37.504-90.496t-90.496-37.504h-92.672q-13.312-37.664-46.336-61.472t-74.336-23.84h-256q-41.344 0-74.336 23.84t-46.336 61.472h-92.672q-52.992 0-90.496 37.504t-37.504 90.496v170.656q0 52.992 37.504 90.496t90.496 37.504h85.344v213.344q0 52.992 37.504 90.496t90.496 37.504zM640 192h-256q-17.664 0-30.176-12.512t-12.512-30.176 12.512-30.176 30.176-12.512h256q17.664 0 30.176 12.512t12.512 30.176-12.512 30.176-30.176 12.512zM853.344 448h-682.656q-17.664 0-30.176-12.512t-12.512-30.176v-170.656q0-17.664 12.512-30.176t30.176-12.512h92.672q13.312 37.664 46.336 61.472t74.336 23.84h256q41.344 0 74.336-23.84t46.336-61.472h92.672q17.664 0 30.176 12.512t12.512 30.176v170.656q0 17.664-12.512 30.176t-30.176 12.512zM640 789.344h-256q-17.664 0-30.176-12.512t-12.512-30.176v-213.344h341.344v213.344q0 17.664-12.512 30.176t-30.176 12.512z" />
<glyph unicode="&#xe950;" glyph-name="reload" d="M469.344 874.656q82.976 0 160.672-31.328 79.648-32.352 141.024-93.664 0.352-0.352 125.024-122.336v162.016q0 17.664 12.512 30.176t30.176 12.512 30.176-12.512 12.512-30.176v-256q0-17.664-12.512-30.176t-30.176-12.512h-256q-17.664 0-30.176 12.512t-12.512 30.176 12.512 30.176 30.176 12.512h144q-92.672 89.984-116 113.312-49.664 49.664-112.992 75.008-61.024 24.992-128.352 24.992t-128.352-24.992q-63.648-25.344-112.992-75.008-49.312-49.312-75.008-112.992-24.992-61.024-24.992-128.352t24.992-128.352q25.696-63.648 75.008-112.992 49.312-49.664 112.992-75.008 61.024-24.992 128.352-24.992t128.352 24.992q63.328 25.344 112.992 75.008 55.328 55.328 80.672 127.648 5.664 16.672 21.664 24.16t32.672 1.824q16.672-6.016 24.32-22.016t1.664-32.672q-15.328-43.648-41.504-85.344t-59.168-73.984q-61.312-61.312-141.024-93.664-77.664-31.328-160.672-31.328t-160.672 31.328q-79.648 32.352-141.024 93.664t-93.664 141.024q-31.328 77.664-31.328 160.672t31.328 160.672q32.352 79.648 93.664 141.024t141.024 93.664q77.664 31.328 160.672 31.328z" />
<glyph unicode="&#xe951;" glyph-name="repeat" d="M42.656 405.344h256q17.664 0 30.176-12.512t12.512-30.176-12.512-30.176-30.176-12.512h-144l116-113.312q49.312-49.664 112.992-75.008 61.024-24.992 128.352-24.992t128.352 24.992q33.312 13.664 62.496 33.504t49.664 40.672 37.344 44.672 27.008 43.808 17.152 40.032q6.016 16.672 22.016 24.16t32.352 1.824q16.672-6.016 24.16-21.856t1.824-32.16q-13.984-42.656-40.672-84.64t-60-75.36q-61.312-61.312-141.024-93.664-77.312-31.328-160.672-31.328-82.976 0-160.672 31.328-79.648 32.352-141.024 93.664l-125.024 122.336v-162.016q0-17.664-12.512-30.176t-30.176-12.512-30.176 12.512-12.512 30.176v256q0 17.664 12.512 30.176t30.176 12.512zM512 874.656q82.976 0 160.672-31.328 79.648-32.352 141.024-93.664l0.672-0.672 124.32-121.696v162.016q0 17.664 12.512 30.176t30.176 12.512 30.176-12.512 12.512-30.176v-256q0-17.664-12.512-30.176t-30.176-12.512h-256q-17.664 0-30.176 12.512t-12.512 30.176 12.512 30.176 30.176 12.512h144l-116 113.312q-48.672 48.672-110.848 74.336t-130.528 25.696q-67.328 0-128.352-24.992-63.648-25.344-112.992-75.008-20-17.664-43.808-53.856t-36.832-73.824q-6.016-16.672-22.016-24.16t-32.352-1.824q-16.672 6.016-24.16 21.856t-1.824 32.16q13.984 42.656 40.672 84.64t60 75.36q61.312 61.312 141.024 93.664 77.664 31.328 160.672 31.328z" />
<glyph unicode="&#xe952;" glyph-name="reply" d="M356.64 804.992q17.312 0 29.984-12.512t12.672-30.176-12.672-30.336l-198.656-198.656h409.344q77.984 0 149.152-30.336t122.496-81.824 81.824-122.496 30.496-149.344v-42.656q0-17.664-12.512-30.176t-30.176-12.512q-17.312 0-29.984 12.672t-12.672 29.984v42.656q0 60.672-23.68 116t-63.648 95.328-95.328 63.648-116 23.68h-409.344l198.656-199.008q12.672-12.672 12.672-29.984 0-17.664-12.512-30.336t-30.176-12.672-30.336 12.672l-271.328 271.648q-12.32 12.32-12.32 30.336 0 17.664 12.32 29.984l271.328 271.648q12.672 12.672 30.336 12.672z" />
<glyph unicode="&#xe953;" glyph-name="rewind" d="M768 789.344q17.664 0 30.176-12.512t12.512-30.176-12.672-30.336l-268.32-268.32 268.32-268.32q12.672-12.672 12.672-30.336t-12.512-30.176-30.176-12.512q-18.016 0-30.336 12.32l-298.656 298.656q-12.32 12.32-12.32 30.336t12.32 30.336l298.656 298.656q12.32 12.32 30.336 12.32zM512 789.344q17.664 0 30.176-12.512t12.512-30.176-12.672-30.336l-268.32-268.32 268.32-268.32q12.672-12.672 12.672-30.336t-12.512-30.176-30.176-12.512q-18.016 0-30.336 12.32l-298.656 298.656q-12.32 12.32-12.32 30.336t12.32 30.336l298.656 298.656q12.32 12.32 30.336 12.32z" />
<glyph unicode="&#xe954;" glyph-name="ribbon" d="M298.656 917.344h426.656q52.992 0 90.496-37.504t37.504-90.496v-810.656l-341.344 256-341.344-256v810.656q0 52.992 37.504 90.496t90.496 37.504zM725.344 832h-426.656q-17.664 0-30.176-12.512t-12.512-30.176v-640l256 192 256-192v640q0 17.664-12.512 30.176t-30.176 12.512z" />
<glyph unicode="&#xe955;" glyph-name="schedule" d="M534.016 662.016v-224l192-114.016-32-54.016-224 136.032v256h64zM512 105.984c188 0 342.016 153.984 342.016 342.016s-153.984 342.016-342.016 342.016-342.016-153.984-342.016-342.016 153.984-342.016 342.016-342.016zM512 873.984c236 0 425.984-189.984 425.984-425.984s-189.984-425.984-425.984-425.984-425.984 189.984-425.984 425.984 189.984 425.984 425.984 425.984z" />
<glyph unicode="&#xe956;" glyph-name="search" d="M426.656 917.344q77.984 0 149.152-30.496t122.496-81.824 81.824-122.496 30.496-149.152q0-66.976-21.856-128.352t-62.176-111.328l242.336-242.016q12.32-12.32 12.32-30.336 0-18.336-12.16-30.496t-30.496-12.16q-18.016 0-30.336 12.32l-242.016 242.336q-50.016-40.32-111.328-62.176t-128.352-21.856q-77.984 0-149.152 30.496t-122.496 81.824-81.824 122.496-30.496 149.152 30.496 149.152 81.824 122.496 122.496 81.824 149.152 30.496zM426.656 832q-60.672 0-116-23.68t-95.328-63.648-63.648-95.328-23.68-116 23.68-116 63.648-95.328 95.328-63.648 116-23.68 116 23.68 95.328 63.648 63.648 95.328 23.68 116-23.68 116-63.648 95.328-95.328 63.648-116 23.68z" />
<glyph unicode="&#xe957;" glyph-name="server" d="M512 917.344q87.328 0 168.992-10.496t149.856-30.688 109.312-53.664 41.184-75.808v-597.344q0-42.336-41.184-75.808t-109.312-53.664-149.856-30.688-168.992-10.496-168.992 10.496-149.856 30.688-109.312 53.664-41.184 75.808v597.344q0 42.336 41.184 75.808t109.312 53.664 149.856 30.688 168.992 10.496zM896 150.016v194.336q-65.312-32.992-168.32-50.016t-215.68-16.992-215.68 16.992-168.32 50.016v-194.976q2.016-7.328 17.824-17.664t48.512-22.304 76-22.016 107.008-16.672 134.656-6.656 134.656 6.656 107.008 16.864 76 22.176 48.512 22.304 17.824 18.016zM896 448.672v194.336q-65.312-32.992-168.32-50.016t-215.68-16.992-215.68 16.992-168.32 50.016v-194.976q2.016-7.328 17.824-17.664t48.512-22.304 76-22.016 107.008-16.672 134.656-6.656 134.656 6.656 106.848 16.672 75.808 22.016 48.672 22.496 18.016 18.176zM512 832q-70.304 0-133.664-6.656t-106.336-16.512-75.808-21.664-49.152-22.304-18.976-18.176q2.688-7.68 18.976-18.176t49.152-22.304 75.808-21.664 106.336-16.512 133.664-6.656 133.664 6.656 106.336 16.512 75.808 21.664 49.152 22.304 18.976 18.176q-2.688 7.68-18.976 18.176t-49.152 22.304-75.808 21.664-106.336 16.512-133.664 6.656z" />
<glyph unicode="&#xe958;" glyph-name="share" d="M768 874.656q70.656 0 120.672-50.016t50.016-120.672-50.016-120.672-120.672-50.016q-37.664 0-71.168 15.488t-57.504 43.168l-216.32-108.32q3.68-17.664 3.68-35.68t-3.68-35.68l216.32-108.32q24.032 27.648 57.504 43.168t71.168 15.488q70.656 0 120.672-50.016t50.016-120.672-50.016-120.672-120.672-50.016-120.672 50.016-50.016 120.672q0 18.016 3.68 35.68l-216.32 108.32q-24.032-27.648-57.504-43.168t-71.168-15.488q-70.656 0-120.672 50.016t-50.016 120.672 50.016 120.672 120.672 50.016q37.664 0 71.168-15.488t57.504-43.168l216.32 108.32q-3.68 17.664-3.68 35.68 0 70.656 50.016 120.672t120.672 50.016zM256 533.344q-35.328 0-60.32-24.992t-24.992-60.32 24.992-60.32 60.32-24.992 60.32 24.992 24.992 60.32-24.992 60.32-60.32 24.992zM768 277.344q-35.328 0-60.32-24.992t-24.992-60.32 24.992-60.32 60.32-24.992 60.32 24.992 24.992 60.32-24.992 60.32-60.32 24.992zM768 789.344q-35.328 0-60.32-24.992t-24.992-60.32 24.992-60.32 60.32-24.992 60.32 24.992 24.992 60.32-24.992 60.32-60.32 24.992z" />
<glyph unicode="&#xe959;" glyph-name="signal" d="M512 789.344q130.976 0 255.008-45.984t224.992-135.328q14.336-12.32 14.336-32 0-16.672-10.656-28.32l-2.016-2.016q-12.32-12.32-29.984-12.32-16.672 0-28.32 10.656-88.992 78.688-198.496 119.328t-224.864 40.672-224.864-40.672-198.496-119.328q-11.648-10.656-28.32-10.656-19.68 0-32 14.336-10.656 11.648-10.656 28.32 0 19.68 14.336 32 101.344 89.344 225.152 135.328t254.848 45.984zM512.352 277.344q57.984 0 107.648-29.312 9.984-6.016 15.648-15.84t5.664-21.152-6.016-21.344q-2.976-4.992-6.656-8.672-12.32-12.32-30.336-12.32-12 0-21.344 5.664-30.336 17.664-64.672 17.664-34.688 0-64.992-17.664-10.656-6.016-21.664-6.016-24.32 0-36.992 20.992-6.016 9.984-6.016 21.344 0 24.32 20.992 36.992 50.336 29.664 108.672 29.664zM512 532.992q80.672 0 157.024-26.656t140-79.008q15.648-12.672 15.648-32.992 0-15.328-9.696-27.008-2.016-2.688-2.688-3.328-12.32-12.32-29.984-12.32-15.648 0-27.36 9.696-52 42.656-114.688 64.672t-128.352 22.016-128.352-22.016-114.688-64.672q-11.648-9.696-27.008-9.696-20.352 0-32.992 15.648-9.696 11.648-9.696 27.008 0 20.352 15.648 32.992 63.328 52.352 140 79.008t157.024 26.656z" />
<glyph unicode="&#xe95a;" glyph-name="skip-back" d="M725.344 789.344q17.664 0 30.176-12.512t12.512-30.176q0-18.016-12.32-30.336l-268.672-268.32 268.672-268.672q12.32-12.32 12.32-30.336 0-17.664-12.512-29.984t-30.176-12.32q-18.016 0-30.336 12.32l-298.656 298.656q-12.32 13.024-12.32 30.336 0 16.992 12.32 29.984l298.656 298.656q12.672 12.672 30.336 12.672zM256 789.344q17.664 0 30.176-12.512t12.512-30.176v-597.344q0-17.664-12.512-30.176t-30.176-12.512-30.176 12.512-12.512 30.176v597.344q0 17.664 12.512 30.176t30.176 12.512z" />
<glyph unicode="&#xe95b;" glyph-name="skip-forward" d="M256 789.344q17.664 0 30.336-12.672l298.656-298.656q12.32-12.32 12.32-29.984 0-18.016-12.32-30.336l-298.656-298.656q-12.32-12.32-30.336-12.32-17.664 0-30.176 12.32t-12.512 29.984q0 17.312 12.32 30.336l268.672 268.672-268.672 268.32q-12.32 13.024-12.32 30.336 0 17.664 12.512 30.176t30.176 12.512zM725.344 789.344q17.664 0 30.176-12.512t12.512-30.176v-597.344q0-17.664-12.512-30.176t-30.176-12.512-30.176 12.512-12.512 30.176v597.344q0 17.664 12.512 30.176t30.176 12.512z" />
<glyph unicode="&#xe95c;" glyph-name="square-check" d="M170.656 917.344h682.656q52.992 0 90.496-37.504t37.504-90.496v-682.656q0-52.992-37.504-90.496t-90.496-37.504h-682.656q-52.992 0-90.496 37.504t-37.504 90.496v682.656q0 52.992 37.504 90.496t90.496 37.504zM853.344 832h-682.656q-17.664 0-30.176-12.512t-12.512-30.176v-682.656q0-17.664 12.512-30.176t30.176-12.512h682.656q17.664 0 30.176 12.512t12.512 30.176v682.656q0 17.664-12.512 30.176t-30.176 12.512zM682.656 596.352q17.312 0 29.984-12.512t12.672-30.176-12.672-30.336l-210.976-210.976q-12.32-12.32-29.984-12.32-18.016 0-30.336 12.32l-120.672 120.672q-12.32 12.32-12.32 30.336 0 17.664 12.512 30.176t30.176 12.512q17.312 0 29.984-12.672l90.336-90.656 180.992 180.992q12.672 12.672 30.336 12.672z" />
<glyph unicode="&#xe95d;" glyph-name="square-cross" d="M170.656 917.344h682.656q52.992 0 90.496-37.504t37.504-90.496v-682.656q0-52.992-37.504-90.496t-90.496-37.504h-682.656q-52.992 0-90.496 37.504t-37.504 90.496v682.656q0 52.992 37.504 90.496t90.496 37.504zM853.344 832h-682.656q-17.664 0-30.176-12.512t-12.512-30.176v-682.656q0-17.664 12.512-30.176t30.176-12.512h682.656q17.664 0 30.176 12.512t12.512 30.176v682.656q0 17.664-12.512 30.176t-30.176 12.512zM632.672 611.68q17.664 0 30.336-12.672t12.672-30.336-12.672-30.336l-90.656-90.336 90.656-90.336q12.672-12.672 12.672-30.336t-12.672-30.176-30.336-12.512-29.984 12.32l-90.656 90.656-90.656-90.656q-12-12.32-29.984-12.32-18.336 0-30.496 12.16t-12.16 30.496q0 18.016 12.32 30.336l90.656 90.336-90.656 90.336q-12.32 12.32-12.32 30.336 0 17.664 12.512 30.336t30.176 12.672q18.016 0 29.984-12.672l90.656-90.656 90.656 90.656q12.672 12.672 29.984 12.672z" />
<glyph unicode="&#xe95e;" glyph-name="square-minus" d="M170.656 917.344h682.656q52.992 0 90.496-37.504t37.504-90.496v-682.656q0-52.992-37.504-90.496t-90.496-37.504h-682.656q-52.992 0-90.496 37.504t-37.504 90.496v682.656q0 52.992 37.504 90.496t90.496 37.504zM853.344 832h-682.656q-17.664 0-30.176-12.512t-12.512-30.176v-682.656q0-17.664 12.512-30.176t30.176-12.512h682.656q17.664 0 30.176 12.512t12.512 30.176v682.656q0 17.664-12.512 30.176t-30.176 12.512zM341.344 490.656h341.344q17.664 0 30.176-12.512t12.512-30.176-12.512-30.176-30.176-12.512h-341.344q-17.664 0-30.176 12.512t-12.512 30.176 12.512 30.176 30.176 12.512z" />
<glyph unicode="&#xe95f;" glyph-name="square-plus" d="M170.656 917.344h682.656q52.992 0 90.496-37.504t37.504-90.496v-682.656q0-52.992-37.504-90.496t-90.496-37.504h-682.656q-52.992 0-90.496 37.504t-37.504 90.496v682.656q0 52.992 37.504 90.496t90.496 37.504zM853.344 832h-682.656q-17.664 0-30.176-12.512t-12.512-30.176v-682.656q0-17.664 12.512-30.176t30.176-12.512h682.656q17.664 0 30.176 12.512t12.512 30.176v682.656q0 17.664-12.512 30.176t-30.176 12.512zM512 661.344q17.664 0 30.176-12.512t12.512-30.176v-128h128q17.664 0 30.176-12.512t12.512-30.176-12.512-30.176-30.176-12.512h-128v-128q0-17.664-12.512-30.176t-30.176-12.512-30.176 12.512-12.512 30.176v128h-128q-17.664 0-30.176 12.512t-12.512 30.176 12.512 30.176 30.176 12.512h128v128q0 17.664 12.512 30.176t30.176 12.512z" />
<glyph unicode="&#xe960;" glyph-name="star" d="M396.672 576l115.328 354.976 115.328-354.976h373.344l-301.984-209.664 115.328-348.672-301.984 221.024-301.984-219.36 115.328 347.008-301.984 209.664h373.344zM565.344 490.656l-53.344 169.696-53.344-169.696h-165.664l133.344-88.32-52.352-157.664 138.336 100 137.696-100.992-52.352 157.664 132.992 89.344h-165.344z" />
<glyph unicode="&#xe961;" glyph-name="stop" d="M256 832h512q52.992 0 90.496-37.504t37.504-90.496v-512q0-52.992-37.504-90.496t-90.496-37.504h-512q-52.992 0-90.496 37.504t-37.504 90.496v512q0 52.992 37.504 90.496t90.496 37.504zM768 746.656h-512q-17.664 0-30.176-12.512t-12.512-30.176v-512q0-17.664 12.512-30.176t30.176-12.512h512q17.664 0 30.176 12.512t12.512 30.176v512q0 17.664-12.512 30.176t-30.176 12.512z" />
<glyph unicode="&#xe962;" glyph-name="tag" d="M42.656 917.344h482.688l418.688-418.336q37.344-37.344 37.344-90.336 0-53.344-37.344-90.656l-301.984-301.984q-37.344-37.344-90.336-37.344-53.344 0-90.656 37.344l-418.336 418.688v482.688zM883.68 438.656l-393.696 393.344h-361.984v-361.984l393.344-393.696q12.672-12.32 30.336-12.32t29.984 12.32l301.984 301.984q12.32 12.32 12.32 29.984t-12.32 30.336zM362.656 704q44.32 0 75.52-31.136t31.136-75.52-31.136-75.52-75.52-31.136-75.52 31.136-31.136 75.52 31.136 75.52 75.52 31.136zM362.656 618.656q-8.672 0-15.008-6.304t-6.304-15.008 6.304-15.008 15.008-6.304 15.008 6.304 6.304 15.008-6.304 15.008-15.008 6.304z" />
<glyph unicode="&#xe963;" glyph-name="tag2" d="M448 832l428.192-428.192c25.056-25.056 25.184-65.632 0.256-90.592l-229.664-229.664c-24.896-24.896-65.504-24.832-90.592 0.256l-428.192 428.192v256c0 35.584 28.64 64 64 64h256zM304 608c26.496 0 48 21.504 48 48s-21.504 48-48 48c-26.496 0-48-21.504-48-48s21.504-48 48-48v0z" />
<glyph unicode="&#xe964;" glyph-name="tags" d="M200.48 800v0 0c11.040 19.2 31.776 32 55.488 32h256l428.192-428.192c25.056-25.056 25.184-65.632 0.256-90.592l-229.664-229.664c-20.288-20.288-50.944-24-75.168-11.168l-20.832-20.832c-24.896-24.896-65.504-24.832-90.592 0.256l-428.192 428.192v256c0 35.584 28.64 64 64 64h40.512zM192 768h-31.744c-17.824 0-32.256-14.624-32.256-32.256v-239.744l419.2-421.472c12.448-12.512 32.576-12.48 44.928-0.064l18.624 18.752-418.784 418.784v256zM496 800h-239.744c-17.824 0-32.256-14.624-32.256-32.256v-239.744l419.2-421.472c12.448-12.512 32.576-12.48 44.928-0.064l229.248 230.784c12.384 12.48 12.32 32.608-0.192 45.024l-421.184 417.728zM368 576v0c-44.192 0-80 35.808-80 80s35.808 80 80 80c44.192 0 80-35.808 80-80s-35.808-80-80-80zM368 608c26.496 0 48 21.504 48 48s-21.504 48-48 48c-26.496 0-48-21.504-48-48s21.504-48 48-48v0z" />
<glyph unicode="&#xe965;" glyph-name="toggle" d="M341.344 789.344h341.344q69.344 0 132.48-27.008t109.024-72.832 72.832-109.024 27.008-132.48-27.008-132.48-72.832-109.024-109.024-72.832-132.48-27.008h-341.344q-69.344 0-132.48 27.008t-109.024 72.832-72.832 109.024-27.008 132.48 27.008 132.48 72.832 109.024 109.024 72.832 132.48 27.008zM341.344 618.656q70.656 0 120.672-50.016t50.016-120.672-50.016-120.672-120.672-50.016-120.672 50.016-50.016 120.672 50.016 120.672 120.672 50.016zM341.344 533.344q-35.328 0-60.32-24.992t-24.992-60.32 24.992-60.32 60.32-24.992 60.32 24.992 24.992 60.32-24.992 60.32-60.32 24.992zM682.656 704h-341.344q-69.664 0-128.512-34.336t-93.184-93.184-34.336-128.512 34.336-128.512 93.184-93.184 128.512-34.336h341.344q69.664 0 128.512 34.336t93.184 93.184 34.336 128.512-34.336 128.512-93.184 93.184-128.512 34.336z" />
<glyph unicode="&#xe966;" glyph-name="trash" d="M426.656 917.344h170.656q52.992 0 90.496-37.504t37.504-90.496v-42.656h170.656q17.664 0 30.176-12.512t12.512-30.176-12.512-30.176-30.176-12.512h-42.656v-512q0-52.992-37.504-90.496t-90.496-37.504h-426.656q-52.992 0-90.496 37.504t-37.504 90.496v512h-42.656q-17.664 0-30.176 12.512t-12.512 30.176 12.512 30.176 30.176 12.512h170.656v42.656q0 52.992 37.504 90.496t90.496 37.504zM768 149.344v512h-512v-512q0-17.664 12.512-30.176t30.176-12.512h426.656q17.664 0 30.176 12.512t12.512 30.176zM597.344 832h-170.656q-17.664 0-30.176-12.512t-12.512-30.176v-42.656h256v42.656q0 17.664-12.512 30.176t-30.176 12.512z" />
<glyph unicode="&#xe967;" glyph-name="trash-can" d="M736 736h128v-32h-64v-607.776c0-53.472-42.976-96.224-96-96.224h-352c-53.312 0-96 43.072-96 96.224v607.776h-64v32h192v63.84c0 35.552 28.608 64.16 63.904 64.16h160.16c35.264 0 63.904-28.736 63.904-64.16v-63.84h64zM288 704v-608.16c0-35.264 28.576-63.84 63.744-63.84h352.512c35.2 0 63.744 28.864 63.744 63.84v608.16h-480zM384 640v-544h32v544h-32zM512 640v-544h32v544h-32zM640 640v-544h32v544h-32zM448.096 832c-17.728 0-32.096-14.176-32.096-31.968v-64.032h224v64.032c0 17.664-14.016 31.968-32.096 31.968h-159.808z" />
<glyph unicode="&#xe968;" glyph-name="trash-can2" d="M736 736h128v-32h-64v-607.776c0-53.472-42.976-96.224-96-96.224h-352c-53.312 0-96 43.072-96 96.224v607.776h-64v32h192v63.84c0 35.552 28.608 64.16 63.904 64.16h160.16c35.264 0 63.904-28.736 63.904-64.16v-63.84h64zM384 640v-544h32v544h-32zM512 640v-544h32v544h-32zM640 640v-544h32v544h-32zM448.096 832c-17.728 0-32.096-14.176-32.096-31.968v-64.032h224v64.032c0 17.664-14.016 31.968-32.096 31.968h-159.808z" />
<glyph unicode="&#xe969;" glyph-name="unlock" d="M512 917.344q69.664 0 128.512-34.336t93.184-93.184 34.336-128.512v-42.656q0-17.664-12.512-30.176t-30.176-12.512-30.176 12.512-12.512 30.176v42.656q0 70.656-50.016 120.672t-120.672 50.016-120.672-50.016-50.016-120.672v-170.656h512q52.992 0 90.496-37.504t37.504-90.496v-256q0-52.992-37.504-90.496t-90.496-37.504h-682.656q-52.992 0-90.496 37.504t-37.504 90.496v256q0 52.992 37.504 90.496t90.496 37.504h85.344v170.656q0 69.664 34.336 128.512t93.184 93.184 128.512 34.336zM853.344 405.344h-682.656q-17.664 0-30.176-12.512t-12.512-30.176v-256q0-17.664 12.512-30.176t30.176-12.512h682.656q17.664 0 30.176 12.512t12.512 30.176v256q0 17.664-12.512 30.176t-30.176 12.512z" />
<glyph unicode="&#xe96a;" glyph-name="upload" d="M213.344 960h597.344q52.992 0 90.496-37.504t37.504-90.496v-597.344q0-52.992-37.504-90.496t-90.496-37.504h-170.656v85.344h170.656q17.664 0 30.176 12.512t12.512 30.176v597.344q0 17.664-12.512 30.176t-30.176 12.512h-597.344q-17.664 0-30.176-12.512t-12.512-30.176v-597.344q0-17.664 12.512-30.176t30.176-12.512h170.656v-85.344h-170.656q-52.992 0-90.496 37.504t-37.504 90.496v597.344q0 52.992 37.504 90.496t90.496 37.504zM512 661.344q18.016 0 30.336-12.32l170.656-170.656q12.32-12.32 12.32-30.336 0-17.664-12.512-30.176t-30.176-12.512q-17.312 0-30.336 12.32l-97.664 98.016v-536.992q0-17.664-12.512-30.176t-30.176-12.512-30.176 12.512-12.512 30.176v536.992l-97.664-98.016q-13.024-12.32-30.336-12.32-17.664 0-30.176 12.512t-12.512 30.176q0 17.312 12.32 30.336l170.656 170.656q12.32 12.32 30.336 12.32z" />
<glyph unicode="&#xe96b;" glyph-name="video" d="M128 746.656h469.344q52.992 0 90.496-37.504t37.504-90.496v-77.664l298.656 162.976v-512l-298.656 162.976v-77.664q0-52.992-37.504-90.496t-90.496-37.504h-469.344q-52.992 0-90.496 37.504t-37.504 90.496v341.344q0 52.992 37.504 90.496t90.496 37.504zM597.344 661.344h-469.344q-17.664 0-30.176-12.512t-12.512-30.176v-341.344q0-17.664 12.512-30.176t30.176-12.512h469.344q17.664 0 30.176 12.512t12.512 30.176v341.344q0 17.664-12.512 30.176t-30.176 12.512zM938.656 335.648v224.672l-205.664-112.352z" />
<glyph unicode="&#xe96c;" glyph-name="warning" d="M977.76 152.992l-400.608 685.952c-33.408 33.408-87.616 33.408-121.024 0l-400.64-685.952c-33.408-33.376-33.408-87.552 0-120.992h922.24c33.472 33.44 33.472 87.616 0.032 120.992zM479.744 592.704c0 26.528 21.504 48 48 48s48-21.472 48-48v-224c0-26.496-21.504-48-48-48s-48 21.504-48 48v224zM528.032 160.448c-26.496 0-48 21.44-48 48 0 26.496 21.504 48 48 48s48-21.504 48-48c0-26.56-21.504-48-48-48z" />
<glyph unicode="&#xe96d;" glyph-name="warning2" d="M907.488 204.896l-345.088 558.4c-27.808 44.896-72.992 44.992-100.8 0v0l-345.088-558.4c-37.312-60.288-10.208-108.896 60.416-108.896h670.208c70.496 0 97.6 48.704 60.384 108.896zM512 192c-17.696 0-32 14.304-32 32s14.304 32 32 32 32-14.304 32-32-14.304-32-32-32zM544 351.904c0-17.408-14.304-31.904-32-31.904-17.792 0-32 14.304-32 31.904v192.192c0 17.408 14.304 31.904 32 31.904v0c17.792 0 32-14.304 32-31.904v-192.192z" />
<glyph unicode="&#xe96e;" glyph-name="warning5" d="M553.984 361.984v171.989h-84.011v-171.989h84.011zM553.984 192v86.016h-84.011v-86.016h84.011zM41.984 64l470.016 809.984 470.016-809.984h-939.989z" />
<glyph unicode="&#xe96f;" glyph-name="zip" d="M512 399.2v-16.8c-36.512-7.36-64-39.424-64-78.4 0-44.192 35.52-80 80-80 44.192 0 80 35.52 80 80 0 38.72-27.296 71.040-64 78.432v65.568h32v32h-32v32h32v32h-32v32h32v32h-32v32h32v32h-32v32h32v32h-32v32h32v32h-32v32h160c53.312 0 96-42.848 96-95.712v-608.608c0-52.704-42.976-95.712-96-95.712h-352c-53.312 0-96 42.848-96 95.712v608.576c0 52.704 42.976 95.712 96 95.712h128v-32h32v-32h-32v-32h32v-32h-32v-32h32v-32h-32v-32h32v-32h-32v-32h32v-32h-32v-32h32v-32h-32v-32h32v-16.8zM352.192 864c-70.816 0-128.192-57.344-128.192-127.936v-608.096c0-70.656 57.184-127.936 128.192-127.936h351.616c70.816 0 128.192 57.344 128.192 127.936v608.096c0 70.656-57.184 127.936-128.192 127.936h-351.616zM528 352v0c26.688 0 48-21.504 48-48 0-26.688-21.504-48-48-48-26.688 0-48 21.504-48 48 0 26.688 21.504 48 48 48z" />
<glyph unicode="&#xe970;" glyph-name="zoom-in" d="M426.656 917.344q77.984 0 149.152-30.496t122.496-81.824 81.824-122.496 30.496-149.152q0-66.976-21.856-128.352t-62.176-111.328l242.336-242.016q12.32-12.32 12.32-30.336 0-18.336-12.16-30.496t-30.496-12.16q-18.016 0-30.336 12.32l-242.016 242.336q-50.016-40.32-111.328-62.176t-128.352-21.856q-77.984 0-149.152 30.496t-122.496 81.824-81.824 122.496-30.496 149.152 30.496 149.152 81.824 122.496 122.496 81.824 149.152 30.496zM426.656 832q-60.672 0-116-23.68t-95.328-63.648-63.648-95.328-23.68-116 23.68-116 63.648-95.328 95.328-63.648 116-23.68 116 23.68 95.328 63.648 63.648 95.328 23.68 116-23.68 116-63.648 95.328-95.328 63.648-116 23.68zM426.656 704q17.664 0 30.176-12.512t12.512-30.176v-85.344h85.344q17.664 0 30.176-12.512t12.512-30.176-12.512-30.176-30.176-12.512h-85.344v-85.344q0-17.664-12.512-30.176t-30.176-12.512-30.176 12.512-12.512 30.176v85.344h-85.344q-17.664 0-30.176 12.512t-12.512 30.176 12.512 30.176 30.176 12.512h85.344v85.344q0 17.664 12.512 30.176t30.176 12.512z" />
<glyph unicode="&#xe971;" glyph-name="zoom-out" d="M426.656 917.344q77.984 0 149.152-30.496t122.496-81.824 81.824-122.496 30.496-149.152q0-66.976-21.856-128.352t-62.176-111.328l242.336-242.016q12.32-12.32 12.32-30.336 0-18.336-12.16-30.496t-30.496-12.16q-18.016 0-30.336 12.32l-242.016 242.336q-50.016-40.32-111.328-62.176t-128.352-21.856q-77.984 0-149.152 30.496t-122.496 81.824-81.824 122.496-30.496 149.152 30.496 149.152 81.824 122.496 122.496 81.824 149.152 30.496zM426.656 832q-60.672 0-116-23.68t-95.328-63.648-63.648-95.328-23.68-116 23.68-116 63.648-95.328 95.328-63.648 116-23.68 116 23.68 95.328 63.648 63.648 95.328 23.68 116-23.68 116-63.648 95.328-95.328 63.648-116 23.68zM298.656 576h256q17.664 0 30.176-12.512t12.512-30.176-12.512-30.176-30.176-12.512h-256q-17.664 0-30.176 12.512t-12.512 30.176 12.512 30.176 30.176 12.512z" />
<glyph unicode="&#xe972;" glyph-name="access_alarms" d="M512 105.984c166.016 0 297.984 134.016 297.984 300s-132 297.984-297.984 297.984-297.984-132-297.984-297.984 132-300 297.984-300zM512 790.016c214.016 0 384-169.984 384-384s-169.984-384-384-384-384 169.984-384 384 169.984 384 384 384zM534.016 617.984v-226.016l169.984-102.016-34.016-52-200.032 124v256h64zM338.016 813.984l-198.016-162.016-54.016 64 196 162.016zM937.984 716l-54.016-64-198.016 168.032 56.032 64z" />
<glyph unicode="&#xe973;" glyph-name="accessibility" d="M896 576h-256v-553.984h-86.016v256h-84v-256h-86.016v553.984h-256v86.016h768v-86.016zM512 873.984c45.984 0 86.016-38.016 86.016-84s-40.032-86.016-86.016-86.016-86.016 40.032-86.016 86.016 40.032 84 86.016 84z" />
<glyph unicode="&#xe974;" glyph-name="accessible" d="M548 192h88.032c-20-98.016-105.984-169.984-210.016-169.984-118.016 0-212 93.984-212 212 0 104.032 72.032 189.984 169.984 210.016v-88.032c-50.016-18.016-86.016-66.016-86.016-121.984 0-70.016 57.984-128 128-128 56.032 0 104.032 36 121.984 86.016zM425.984 572c0 60 66.72 113.024 128 77.984h2.016v-2.016c9.984-4 18.016-9.984 25.984-18.016l56.032-61.984c41.984-45.984 105.984-77.984 172-77.984v-84c-73.984 0-156 36-212 82.016v-146.016h128c45.984 0 84-40.032 84-86.016v-233.984h-84v212h-214.016c-45.984 0-86.016 40.032-86.016 86.016v252zM425.984 790.016c0 48 38.016 84 86.016 84s86.016-36 86.016-84-38.016-86.016-86.016-86.016-86.016 38.016-86.016 86.016z" />
<glyph unicode="&#xe975;" glyph-name="airline_seat_individual_suite" d="M809.984 662.016c93.984 0 172-77.984 172-172v-256h-940v428h86.016v-300h342.016v300h340zM297.984 406.016c-70.016 0-128 57.984-128 128s57.984 128 128 128 128-57.984 128-128-57.984-128-128-128z" />
<glyph unicode="&#xe976;" glyph-name="airline_seat_legroom_extra" d="M973.984 224c18.016-32 2.016-72.032-29.984-88.032l-157.984-72.032-146.016 297.984h-297.984c-70.016 0-128 57.984-128 128v342.016h256v-256h150.016c32 0 61.984-18.016 76-48l144-297.984 48 22.016c32 13.984 70.016 2.016 86.016-28zM169.984 448c0-70.016 57.984-128 128-128h256v-86.016h-256c-118.016 0-212 96-212 214.016v384h84v-384z" />
<glyph unicode="&#xe977;" glyph-name="airline_seat_legroom_normal" d="M873.984 192c36 0 64-28 64-64s-28-64-64-64h-192v297.984h-297.984c-70.016 0-128 57.984-128 128v342.016h256v-256h214.016c45.984 0 84-40.032 84-86.016v-297.984h64zM214.016 448c0-70.016 57.984-128 128-128h256v-86.016h-256c-118.016 0-214.016 96-214.016 214.016v384h86.016v-384z" />
<glyph unicode="&#xe978;" glyph-name="airline_seat_legroom_reduced" d="M214.016 448c0-70.016 57.984-128 128-128h169.984v-86.016h-169.984c-118.016 0-214.016 96-214.016 214.016v384h86.016v-384zM852 140c8.032-40.032-22.016-76-61.984-76h-192v128l41.984 169.984h-256c-70.016 0-128 57.984-128 128v342.016h256v-256h214.016c45.984 0 84-40.032 84-86.016l-84-297.984h60c32 0 60-22.016 66.016-52z" />
<glyph unicode="&#xe979;" glyph-name="air-play" d="M170.656 874.656h682.656q52.992 0 90.496-37.504t37.504-90.496v-426.656q0-52.992-37.504-90.496t-90.496-37.504h-106.656l-64 85.344h170.656q17.664 0 30.176 12.512t12.512 30.176v426.656q0 17.664-12.512 30.176t-30.176 12.512h-682.656q-17.664 0-30.176-12.512t-12.512-30.176v-426.656q0-17.664 12.512-30.176t30.176-12.512h170.656l-64-85.344h-106.656q-52.992 0-90.496 37.504t-37.504 90.496v426.656q0 52.992 37.504 90.496t90.496 37.504zM597.344 106.656l-85.344 113.664-85.344-113.664h170.656zM256 21.344l256 341.344 256-341.344h-512z" />
</font>
</defs>
</svg>
